<svg xmlns="http://www.w3.org/2000/svg" width="1024" height="1024" viewBox="0 0 1024 1024">
<g>
<path d="M 294.81 561.25 C293.94,561.94 293.06,563.09 292.85,563.81 C292.36,565.47 288.00,561.05 288.00,558.89 C288.00,558.07 287.44,556.78 286.75,556.02 C286.04,555.23 286.72,555.39 288.34,556.40 C289.90,557.37 291.40,557.94 291.67,557.66 C291.95,557.39 291.26,556.67 290.14,556.08 C288.88,555.40 288.26,554.25 288.50,553.02 C288.71,551.93 288.50,550.81 288.03,550.52 C286.75,549.73 287.95,546.33 289.52,546.33 C290.27,546.33 290.80,546.60 290.70,546.92 C290.25,548.30 296.34,554.91 298.32,555.19 C299.70,555.39 300.62,556.33 300.82,557.75 C301.07,559.54 300.66,560.00 298.76,560.00 C297.45,560.00 295.67,560.56 294.81,561.25 ZM 274.13 496.06 C274.18,499.39 273.94,502.39 273.61,502.73 C273.27,503.06 273.00,499.66 273.00,495.17 L 273.00 487.00 L 296.75 487.14 C312.81,487.24 318.23,487.51 313.50,487.99 C309.65,488.38 299.87,488.60 291.77,488.48 C283.64,488.36 277.28,488.65 277.58,489.13 C277.88,489.61 277.20,490.00 276.08,490.00 C274.25,490.00 274.05,490.60 274.13,496.06 ZM 302.84 601.25 L 303.00 605.00 L 276.28 605.00 L 276.76 602.50 C277.32,599.54 277.84,599.40 279.58,601.75 C280.68,603.23 281.20,603.31 282.96,602.23 C284.70,601.16 285.14,601.20 285.63,602.48 C286.08,603.66 287.95,604.00 294.04,604.00 L 301.87 604.00 L 302.28 600.75 C302.67,597.55 302.68,597.56 302.84,601.25 ZM 290.00 553.50 C291.40,555.19 292.45,555.54 291.50,554.00 C291.16,553.45 291.39,553.00 292.00,553.00 C293.58,553.00 292.29,551.22 289.69,549.84 C287.71,548.78 287.63,548.83 288.87,550.34 C289.63,551.25 289.91,552.00 289.50,552.00 C289.09,552.00 289.32,552.67 290.00,553.50 Z" fill="rgb(70,86,138)"/>
<path d="M 199.00 604.00 C199.00,604.55 197.43,605.00 195.50,605.00 L 192.00 605.00 L 192.00 513.50 L 147.50 513.50 L 147.50 488.71 L 163.00 488.91 C171.55,489.03 178.65,489.54 178.83,490.06 C179.02,490.58 180.25,491.00 181.58,491.00 C182.91,491.00 184.00,491.45 184.00,492.00 C184.00,492.55 185.80,493.00 188.00,493.00 C190.20,493.00 192.00,493.45 192.00,494.00 C192.00,494.60 195.83,495.00 201.50,495.00 C210.84,495.00 214.63,496.50 207.25,497.27 C204.97,497.51 206.14,497.73 210.25,497.83 C217.99,498.02 219.58,500.00 212.00,500.00 C209.25,500.00 207.00,500.38 207.00,500.84 C207.00,502.34 202.01,504.00 197.51,504.00 C192.36,504.00 190.54,505.76 194.81,506.61 C197.09,507.07 197.65,507.63 197.26,509.10 C196.68,511.32 196.53,511.35 193.81,509.90 C192.32,509.10 191.94,509.10 192.44,509.90 C192.81,510.51 192.55,511.00 191.86,511.00 C190.88,511.00 190.87,511.27 191.80,512.20 C192.46,512.86 193.06,516.12 193.14,519.45 C193.21,522.78 193.47,524.49 193.71,523.25 C193.94,522.01 194.56,521.00 195.07,521.00 C195.58,521.00 196.00,520.52 196.00,519.94 C196.00,519.36 195.55,519.16 195.00,519.50 C194.40,519.87 194.00,518.68 194.00,516.56 C194.00,514.31 194.48,513.00 195.30,513.00 C196.21,513.00 196.95,516.20 197.78,523.63 C198.44,529.48 199.49,534.88 200.12,535.65 C201.02,536.72 200.85,537.52 199.39,539.19 C198.35,540.37 198.03,541.03 198.68,540.66 C201.10,539.24 200.95,541.97 198.45,544.69 C197.03,546.23 195.22,548.21 194.43,549.08 C193.38,550.25 193.04,553.15 193.16,560.08 C193.29,568.08 193.42,568.75 194.00,564.50 C194.40,561.57 194.80,560.53 194.96,562.00 C195.23,564.40 195.27,564.37 196.00,561.50 L 196.76 558.50 L 196.88 562.05 C197.05,567.22 198.38,568.00 207.00,568.00 C211.58,568.00 215.08,568.48 215.80,569.20 C216.73,570.13 217.00,569.91 217.00,568.20 C217.00,566.99 217.45,566.00 218.00,566.00 C219.04,566.00 219.43,573.24 218.44,574.23 C218.13,574.54 216.80,573.71 215.48,572.39 C213.44,570.35 212.12,570.00 206.47,570.00 C199.86,570.00 197.09,571.21 196.93,574.18 C196.89,574.91 196.47,574.60 196.00,573.50 C195.39,572.09 195.09,571.94 194.97,573.00 C194.88,573.83 194.44,573.38 194.00,572.00 C193.52,570.52 193.16,576.30 193.10,586.25 L 193.00 603.00 L 196.00 603.00 C197.65,603.00 199.00,603.45 199.00,604.00 ZM 186.50 451.52 C180.45,454.11 171.11,458.36 165.75,460.98 C160.39,463.59 156.00,465.37 156.00,464.93 C156.00,463.99 169.46,456.29 182.91,449.54 C211.05,435.41 269.81,417.10 274.50,421.00 C275.31,421.67 275.73,422.63 275.43,423.11 C275.13,423.60 275.36,424.00 275.94,424.00 C276.52,424.00 277.00,424.37 277.00,424.82 C277.00,425.27 272.61,426.45 267.25,427.45 C241.37,432.26 209.00,441.91 186.50,451.52 ZM 204.12 595.83 C201.28,595.94 199.16,596.65 198.12,597.84 C197.23,598.86 195.94,599.49 195.25,599.26 C193.77,598.75 193.56,596.00 195.00,596.00 C195.58,596.00 196.00,592.71 196.00,588.12 C196.00,582.34 196.40,579.91 197.50,579.00 C198.54,578.14 199.00,578.10 199.00,578.88 C199.00,579.49 198.53,580.00 197.96,580.00 C196.76,580.00 198.66,584.07 200.40,585.23 C201.42,585.92 199.84,586.45 197.76,586.12 C197.36,586.06 197.11,587.08 197.22,588.39 C197.36,590.03 197.88,590.60 198.87,590.22 C199.92,589.82 200.09,590.06 199.47,591.08 C198.74,592.29 198.86,592.30 200.31,591.13 C201.52,590.15 202.36,590.06 203.28,590.81 C203.98,591.40 206.79,592.04 209.53,592.26 C213.60,592.57 213.19,592.67 207.25,592.82 C199.38,593.02 197.38,594.65 204.25,595.27 L 208.50 595.65 ZM 216.43 582.02 C215.02,582.56 211.76,583.00 209.18,583.00 C205.60,583.00 204.19,582.53 203.26,581.05 C202.57,579.93 202.43,578.85 202.95,578.53 C203.45,578.22 204.14,578.42 204.49,578.98 C205.30,580.30 214.69,580.31 215.50,579.00 C216.46,577.44 219.00,577.82 219.00,579.52 C219.00,580.36 217.85,581.49 216.43,582.02 ZM 247.00 507.00 C247.00,507.56 244.33,508.00 241.00,508.00 C235.67,508.00 235.00,507.78 235.00,506.00 C235.00,504.44 235.67,504.00 238.00,504.00 C239.65,504.00 241.00,504.45 241.00,505.00 C241.00,505.55 242.35,506.00 244.00,506.00 C245.65,506.00 247.00,506.45 247.00,507.00 ZM 203.80 538.80 C203.14,539.46 201.96,540.00 201.18,540.00 C200.05,540.00 200.00,539.70 200.96,538.54 C201.63,537.74 201.94,536.71 201.66,536.25 C201.37,535.79 202.01,535.35 203.07,535.27 C205.24,535.11 205.62,536.98 203.80,538.80 Z" fill="rgb(43,35,122)"/>
<path d="M 218.81 568.03 C218.64,566.86 218.36,566.00 218.00,566.00 C217.45,566.00 217.00,566.99 217.00,568.20 C217.00,569.91 216.73,570.13 215.80,569.20 C215.08,568.48 211.58,568.00 207.00,568.00 C198.38,568.00 197.05,567.22 196.88,562.05 L 196.76 558.50 L 196.00 561.50 C195.27,564.37 195.23,564.40 194.96,562.00 C194.80,560.53 194.40,561.57 194.00,564.50 C193.42,568.75 193.29,568.08 193.16,560.08 C193.04,553.15 193.38,550.25 194.43,549.08 C195.22,548.21 197.03,546.23 198.45,544.69 C200.95,541.97 201.10,539.24 198.68,540.66 C198.03,541.03 198.35,540.37 199.39,539.19 C200.85,537.52 201.02,536.72 200.12,535.65 C199.49,534.88 198.44,529.48 197.78,523.63 C196.95,516.20 196.21,513.00 195.30,513.00 C194.48,513.00 194.00,514.31 194.00,516.56 C194.00,518.68 194.40,519.87 195.00,519.50 C195.55,519.16 196.00,519.36 196.00,519.94 C196.00,520.52 195.58,521.00 195.07,521.00 C194.56,521.00 193.94,522.01 193.71,523.25 C193.47,524.49 193.21,522.78 193.14,519.45 C193.06,516.12 192.46,512.86 191.80,512.20 C190.87,511.27 190.88,511.00 191.86,511.00 C192.55,511.00 192.81,510.51 192.44,509.90 C191.94,509.10 192.32,509.10 193.81,509.90 C196.53,511.35 196.68,511.32 197.26,509.10 C197.65,507.63 197.09,507.07 194.81,506.61 C190.54,505.76 192.36,504.00 197.51,504.00 C202.01,504.00 207.00,502.34 207.00,500.84 C207.00,500.38 209.25,500.00 212.00,500.00 C219.58,500.00 217.99,498.02 210.25,497.83 C206.14,497.73 204.97,497.51 207.25,497.27 C214.63,496.50 210.84,495.00 201.50,495.00 C195.83,495.00 192.00,494.60 192.00,494.00 C192.00,493.45 190.20,493.00 188.00,493.00 C185.80,493.00 184.00,492.55 184.00,492.00 C184.00,491.45 182.91,491.00 181.58,491.00 C180.25,491.00 179.02,490.58 178.83,490.06 C178.65,489.54 171.55,489.03 163.00,488.91 L 153.09 488.78 L 165.50 488.67 C175.40,488.57 201.40,488.61 223.28,488.75 L 263.06 489.00 L 262.50 513.50 L 240.75 513.77 L 219.00 514.04 L 218.86 520.77 C218.78,524.47 218.75,544.36 218.81,564.96 ZM 284.97 601.53 C284.57,601.35 284.00,601.60 282.96,602.23 C281.20,603.31 280.68,603.23 279.58,601.75 C277.84,599.40 277.32,599.54 276.76,602.50 L 276.28 605.00 L 276.00 605.00 L 276.00 543.00 L 286.94 543.00 C293.16,543.00 298.15,543.43 298.50,544.00 C298.87,544.59 297.70,545.00 295.62,545.00 C291.23,545.00 290.22,546.52 292.75,549.32 C293.81,550.51 294.95,552.23 295.28,553.15 C292.94,551.01 290.40,547.83 290.70,546.92 C290.80,546.60 290.27,546.33 289.52,546.33 C287.95,546.33 286.75,549.73 288.03,550.52 C288.50,550.81 288.71,551.93 288.50,553.02 C288.26,554.25 288.88,555.40 290.14,556.08 C291.26,556.67 291.95,557.39 291.67,557.66 C291.40,557.94 289.90,557.37 288.34,556.40 C286.72,555.39 286.04,555.23 286.75,556.02 C287.44,556.78 288.00,558.07 288.00,558.89 C288.00,561.05 292.36,565.47 292.85,563.81 C292.89,563.65 292.97,563.48 293.07,563.29 C292.64,564.74 292.64,567.27 292.82,572.65 C292.99,578.04 293.63,583.05 294.23,583.78 C295.04,584.75 294.96,585.47 293.91,586.50 C291.86,588.53 285.86,589.39 284.85,587.79 C283.65,585.89 283.79,594.74 285.00,597.01 C285.66,598.23 285.66,599.09 285.02,599.49 C284.49,599.81 284.48,600.55 284.97,601.53 ZM 199.00 604.00 C199.00,603.45 197.65,603.00 196.00,603.00 L 193.00 603.00 L 193.10 586.25 C193.16,576.30 193.52,570.52 194.00,572.00 C194.44,573.38 194.88,573.83 194.97,573.00 C195.09,571.94 195.39,572.09 196.00,573.50 C196.47,574.60 196.89,574.91 196.93,574.18 C197.09,571.21 199.86,570.00 206.47,570.00 C212.12,570.00 213.44,570.35 215.48,572.39 C216.80,573.71 218.13,574.54 218.44,574.23 C218.60,574.07 218.72,573.75 218.81,573.32 C218.81,575.23 218.81,577.05 218.80,578.77 C218.18,577.75 216.30,577.71 215.50,579.00 C214.69,580.31 205.30,580.30 204.49,578.98 C204.14,578.42 203.45,578.22 202.95,578.53 C202.43,578.85 202.57,579.93 203.26,581.05 C204.19,582.53 205.60,583.00 209.18,583.00 C211.76,583.00 215.02,582.56 216.43,582.02 C217.49,581.62 218.40,580.90 218.79,580.21 C218.71,595.37 218.39,603.03 217.83,603.71 C217.06,604.64 213.28,605.00 204.38,605.00 L 195.50 605.00 C197.43,605.00 199.00,604.55 199.00,604.00 ZM 266.39 421.03 C284.49,416.89 303.30,413.65 322.00,411.53 C336.00,409.95 344.21,409.64 340.50,410.85 C337.83,411.72 337.56,413.73 340.02,414.51 C341.11,414.85 342.00,415.55 342.00,416.05 C342.00,417.26 339.26,417.76 328.50,418.50 C311.38,419.68 292.04,422.45 272.58,426.32 C271.05,426.69 269.22,427.08 267.25,427.45 C266.67,427.55 266.09,427.66 265.51,427.77 C236.63,433.91 208.05,442.33 186.66,451.45 C208.65,442.08 239.99,432.68 265.51,427.77 C267.87,427.27 270.23,426.79 272.58,426.32 C275.24,425.68 277.00,425.10 277.00,424.82 C277.00,424.37 276.52,424.00 275.94,424.00 C275.36,424.00 275.13,423.60 275.43,423.11 C275.73,422.63 275.31,421.67 274.50,421.00 C273.60,420.25 270.69,420.32 266.39,421.03 C254.90,423.66 243.69,426.65 232.99,429.94 C215.31,435.65 195.87,443.04 182.91,449.54 C197.34,442.30 214.41,435.66 232.99,429.94 C246.31,425.64 258.63,422.30 266.39,421.03 ZM 274.13 496.06 C274.05,490.60 274.25,490.00 276.08,490.00 C277.20,490.00 277.88,489.61 277.58,489.13 C277.30,488.67 283.08,488.39 290.68,488.47 C289.59,488.52 288.55,488.59 287.61,488.67 C281.21,489.24 280.92,489.37 283.53,490.44 L 286.34 491.58 L 283.77 493.61 C281.40,495.48 280.58,497.49 280.88,500.75 C280.97,501.67 283.93,502.00 292.00,502.00 C298.67,502.00 303.00,502.39 303.00,503.00 C303.00,503.55 300.52,504.00 297.50,504.00 C294.48,504.00 292.00,504.45 292.00,505.00 C292.00,505.56 289.02,506.04 285.25,506.10 L 278.50 506.20 L 282.93 507.38 C289.54,509.14 289.37,511.00 282.58,511.00 C278.60,511.00 277.00,511.38 277.00,512.33 C277.00,513.07 276.39,513.67 275.64,513.67 C274.66,513.67 273.77,508.85 273.32,502.03 C273.41,502.57 273.50,502.83 273.61,502.73 C273.94,502.39 274.18,499.39 274.13,496.06 ZM 551.12 458.44 C539.79,464.30 524.85,457.18 520.81,444.00 C518.31,435.87 520.24,428.85 522.94,436.25 C525.28,442.69 528.22,447.83 531.12,450.62 C533.91,453.29 534.67,453.47 544.47,453.84 C552.95,454.15 554.75,454.48 554.30,455.65 C554.00,456.43 552.57,457.69 551.12,458.44 ZM 284.07 575.25 C284.12,580.23 284.41,581.87 285.00,580.50 C285.60,579.11 285.90,578.96 286.00,580.00 C286.09,580.98 286.51,580.72 287.22,579.25 C287.82,578.01 288.69,577.00 289.15,577.00 C290.59,577.00 290.19,562.02 288.75,561.87 C288.06,561.80 286.51,561.64 285.30,561.51 C283.11,561.28 281.50,563.38 282.56,565.09 C282.87,565.59 282.64,566.00 282.06,566.00 C281.48,566.00 281.00,566.45 281.00,567.00 C281.00,567.55 281.67,568.00 282.50,568.00 C283.69,568.00 284.01,569.50 284.07,575.25 ZM 204.12 595.83 L 208.50 595.65 L 204.25 595.27 C201.39,595.01 200.07,594.58 200.06,594.15 C200.50,594.64 203.13,595.00 206.44,595.00 C209.98,595.00 213.16,594.55 213.50,594.00 C213.89,593.37 211.51,593.00 207.06,593.00 C205.00,593.00 203.21,593.11 201.94,593.30 C203.16,593.06 204.96,592.88 207.25,592.82 C213.19,592.67 213.60,592.57 209.53,592.26 C206.79,592.04 203.98,591.40 203.28,590.81 C202.36,590.06 201.52,590.15 200.31,591.13 C198.86,592.30 198.74,592.29 199.47,591.08 C200.09,590.06 199.92,589.82 198.87,590.22 C197.88,590.60 197.36,590.03 197.22,588.39 C197.11,587.08 197.36,586.06 197.76,586.12 C199.84,586.45 201.42,585.92 200.40,585.23 C198.66,584.07 196.76,580.00 197.96,580.00 C198.53,580.00 199.00,579.49 199.00,578.88 C199.00,578.10 198.54,578.14 197.50,579.00 C196.40,579.91 196.00,582.34 196.00,588.12 C196.00,592.71 195.58,596.00 195.00,596.00 C193.56,596.00 193.77,598.75 195.25,599.26 C195.94,599.49 197.23,598.86 198.12,597.84 C199.16,596.65 201.28,595.94 204.12,595.83 ZM 247.00 507.00 C247.00,506.45 245.65,506.00 244.00,506.00 C242.35,506.00 241.00,505.55 241.00,505.00 C241.00,504.45 239.65,504.00 238.00,504.00 C235.67,504.00 235.00,504.44 235.00,506.00 C235.00,507.78 235.67,508.00 241.00,508.00 C244.33,508.00 247.00,507.56 247.00,507.00 ZM 203.80 538.80 C205.62,536.98 205.24,535.11 203.07,535.27 C202.01,535.35 201.37,535.79 201.66,536.25 C201.94,536.71 201.63,537.74 200.96,538.54 C200.00,539.70 200.05,540.00 201.18,540.00 C201.96,540.00 203.14,539.46 203.80,538.80 ZM 169.75 513.77 L 147.50 513.50 L 192.00 513.50 L 192.00 514.04 ZM 274.38 496.55 C274.87,497.83 275.22,497.87 276.38,496.80 C277.15,496.09 277.45,495.27 277.04,495.00 C276.63,494.73 276.06,493.83 275.77,493.00 C275.32,491.75 275.11,491.79 274.51,493.25 C274.11,494.21 274.05,495.70 274.38,496.55 ZM 290.00 553.50 C289.32,552.67 289.09,552.00 289.50,552.00 C289.91,552.00 289.63,551.25 288.87,550.34 C287.63,548.83 287.71,548.78 289.69,549.84 C292.29,551.22 293.58,553.00 292.00,553.00 C291.39,553.00 291.16,553.45 291.50,554.00 C292.45,555.54 291.40,555.19 290.00,553.50 ZM 300.34 488.50 C305.85,488.43 310.96,488.25 313.50,487.99 C318.23,487.51 312.81,487.24 296.75,487.14 L 273.00 487.00 L 296.75 487.14 C314.91,487.24 318.74,487.46 313.00,488.08 C309.03,488.50 303.45,488.69 300.34,488.50 ZM 285.71 602.64 C286.34,603.33 287.23,603.68 289.09,603.85 C286.99,603.67 286.07,603.31 285.71,602.64 ZM 295.58 560.78 C296.51,560.32 297.77,560.00 298.76,560.00 C297.84,560.00 296.61,560.32 295.58,560.78 Z" fill="rgb(45,59,129)"/>
<path d="M 294.81 561.25 C295.02,561.08 295.28,560.92 295.58,560.78 C296.61,560.32 297.84,560.00 298.76,560.00 C300.66,560.00 301.07,559.54 300.82,557.75 C300.62,556.33 299.70,555.39 298.32,555.19 C298.07,555.15 297.74,555.01 297.37,554.79 C298.03,555.00 298.78,555.17 299.50,555.27 C304.75,556.02 311.42,556.02 321.10,555.27 C330.42,554.56 330.45,554.54 325.00,553.87 C317.26,552.92 298.55,552.86 295.84,553.65 C295.66,553.49 295.47,553.32 295.28,553.15 C294.95,552.23 293.81,550.51 292.75,549.32 C290.22,546.52 291.23,545.00 295.62,545.00 C297.70,545.00 298.87,544.59 298.50,544.00 C298.15,543.43 293.16,543.00 286.94,543.00 L 316.75 543.00 C353.55,543.00 357.84,542.83 360.98,541.25 C362.89,540.29 365.00,538.38 365.66,537.00 C374.22,519.20 375.68,516.97 377.22,519.23 C377.75,520.00 377.98,518.23 377.80,514.75 C377.59,510.66 377.86,509.00 378.75,509.00 C379.70,509.00 380.00,513.14 380.00,526.36 L 380.00 543.72 L 376.92 547.61 C373.42,552.03 369.60,554.39 367.03,553.72 C364.87,553.15 361.75,554.78 362.54,556.06 C362.86,556.58 362.70,557.00 362.20,557.00 C361.69,557.00 361.38,558.01 361.51,559.25 C361.64,560.49 361.87,561.50 362.01,561.50 C362.16,561.50 362.38,563.17 362.50,565.21 C362.68,568.42 364.05,570.32 372.76,579.44 C378.29,585.23 384.22,591.16 385.95,592.61 C387.67,594.06 388.83,595.51 388.51,595.82 C388.20,596.13 385.06,593.53 381.53,590.03 C376.07,584.62 374.88,583.86 373.57,584.94 C372.68,585.68 370.98,585.96 369.57,585.61 C368.23,585.27 366.83,585.47 366.46,586.06 C365.68,587.33 367.92,593.17 368.95,592.53 C369.34,592.29 369.67,592.74 369.67,593.54 C369.67,594.34 369.18,595.01 368.58,595.02 C367.99,595.02 368.17,595.47 369.00,596.00 C369.83,596.53 372.41,596.98 374.75,596.98 C377.09,596.99 379.00,597.45 379.00,598.00 C379.00,598.55 380.70,599.00 382.79,599.00 C386.28,599.00 386.59,599.23 386.80,602.00 L 387.03 605.00 L 361.48 605.00 L 324.52 568.00 L 303.00 568.00 L 303.00 605.00 L 302.84 601.25 C302.68,597.56 302.67,597.55 302.28,600.75 L 301.87 604.00 L 294.04 604.00 C291.92,604.00 290.30,603.96 289.09,603.85 C287.23,603.68 286.34,603.33 285.71,602.64 C285.68,602.59 285.65,602.53 285.63,602.48 C285.43,601.96 285.24,601.64 284.97,601.53 C284.48,600.55 284.49,599.81 285.02,599.49 C285.66,599.09 285.66,598.23 285.00,597.01 C283.79,594.74 283.65,585.89 284.85,587.79 C285.86,589.39 291.86,588.53 293.91,586.50 C294.96,585.47 295.04,584.75 294.23,583.78 C293.63,583.05 292.99,578.04 292.82,572.65 C292.64,567.27 292.64,564.74 293.07,563.29 C293.43,562.62 294.13,561.79 294.81,561.25 ZM 300.34 488.50 C303.45,488.69 309.03,488.50 313.00,488.08 C318.74,487.46 314.91,487.24 296.75,487.14 L 273.00 487.00 L 273.00 486.86 L 365.50 487.50 L 370.92 489.94 C373.98,491.33 375.72,492.59 374.92,492.86 C370.69,494.26 365.97,503.00 369.44,503.00 C370.30,503.00 371.00,503.50 371.00,504.12 C371.00,504.81 370.09,504.63 368.59,503.65 C366.38,502.20 366.13,502.21 365.44,503.79 C365.03,504.73 364.54,506.40 364.34,507.50 C364.14,508.60 363.09,510.12 361.99,510.87 C360.90,511.63 360.00,512.86 360.00,513.62 C360.00,514.90 355.95,515.61 354.85,514.52 C354.59,514.26 336.36,514.01 314.33,513.98 L 274.29 513.91 L 273.72 506.59 C274.21,510.90 274.90,513.67 275.64,513.67 C276.39,513.67 277.00,513.07 277.00,512.33 C277.00,511.38 278.60,511.00 282.58,511.00 C289.37,511.00 289.54,509.14 282.93,507.38 L 278.50 506.20 L 285.25 506.10 C289.02,506.04 292.00,505.56 292.00,505.00 C292.00,504.45 294.48,504.00 297.50,504.00 C300.52,504.00 303.00,503.55 303.00,503.00 C303.00,502.39 298.67,502.00 292.00,502.00 C283.93,502.00 280.97,501.67 280.88,500.75 C280.58,497.49 281.40,495.48 283.77,493.61 L 286.34 491.58 L 283.53 490.44 C280.92,489.37 281.21,489.24 287.61,488.67 C288.55,488.59 289.59,488.52 290.68,488.47 C291.04,488.47 291.41,488.48 291.77,488.48 C294.53,488.53 297.49,488.53 300.34,488.50 ZM 232.99 429.94 C224.94,432.42 217.17,435.07 209.79,437.87 C219.90,433.93 230.72,430.34 242.05,427.12 C250.91,424.47 258.87,422.41 264.72,421.32 C272.66,419.50 280.75,417.86 288.96,416.41 C299.90,414.42 310.97,412.78 322.00,411.53 C326.92,410.97 331.12,410.58 334.35,410.34 C356.79,408.32 379.14,407.76 400.18,408.85 C424.01,410.09 443.95,412.04 457.11,414.43 C464.20,415.72 464.30,415.77 459.50,415.76 C453.81,415.75 439.79,418.61 435.90,420.58 C433.71,421.69 430.72,421.59 416.90,419.93 C396.72,417.51 349.55,415.61 342.50,416.92 C341.83,417.05 340.94,417.19 339.92,417.33 C337.99,417.75 334.48,418.09 328.50,418.50 C324.03,418.81 319.40,419.23 314.66,419.74 C301.22,421.21 286.91,423.47 272.55,426.33 C269.28,426.98 266.00,427.66 262.74,428.37 C235.36,434.32 208.46,442.30 187.90,450.93 ZM 266.39 421.03 L 262.74 428.37 C263.66,428.17 264.59,427.97 265.51,427.77 C267.87,427.27 270.23,426.79 272.58,426.32 C286.96,423.46 301.27,421.20 314.66,419.74 C319.40,419.22 324.02,418.80 328.50,418.49 C332.24,418.23 336.75,417.76 339.92,417.33 C341.46,416.99 342.00,416.59 342.00,416.05 C342.00,415.55 341.11,414.85 340.02,414.51 C337.56,413.73 337.83,411.72 340.50,410.85 C342.91,410.07 340.30,409.92 334.35,410.34 C319.14,411.71 303.88,413.75 288.96,416.41 C281.35,417.79 273.81,419.33 266.39,421.03 ZM 520.53 433.22 L 520.54 433.18 C522.11,427.89 525.31,424.03 530.34,421.36 C534.34,419.24 534.87,420.48 531.49,424.01 C528.95,426.66 528.64,427.66 528.77,432.97 C528.94,439.82 530.75,443.97 534.84,446.89 C538.13,449.23 544.72,450.54 548.48,449.59 C551.75,448.77 558.99,442.29 559.04,440.13 C559.05,439.24 559.70,437.38 560.46,436.00 C561.71,433.76 561.93,433.69 562.55,435.30 C564.93,441.43 559.64,453.36 552.76,457.37 C553.53,456.77 554.12,456.12 554.30,455.65 C554.75,454.48 552.95,454.15 544.47,453.84 C534.67,453.47 533.91,453.29 531.12,450.62 C528.22,447.83 525.28,442.69 522.94,436.25 C521.99,433.63 521.13,432.82 520.53,433.22 ZM 476.50 427.01 C475.65,428.65 474.62,429.95 474.22,429.89 C470.28,429.30 458.01,426.37 457.57,425.91 C456.83,425.16 469.54,422.88 473.50,423.05 C477.43,423.23 481.09,422.34 482.43,420.88 C483.22,420.02 483.14,419.91 482.14,420.48 C481.38,420.91 480.47,420.76 480.08,420.13 C479.70,419.52 476.59,418.72 473.16,418.36 C469.74,418.00 466.66,417.25 466.31,416.70 C465.65,415.62 470.30,416.07 482.00,418.23 C485.66,418.90 487.52,419.58 486.25,419.78 C484.22,420.10 483.54,421.10 483.88,423.25 C483.99,423.91 480.85,424.44 478.77,424.13 C478.37,424.06 477.35,425.36 476.50,427.01 ZM 284.07 575.25 C284.01,569.50 283.69,568.00 282.50,568.00 C281.67,568.00 281.00,567.55 281.00,567.00 C281.00,566.45 281.48,566.00 282.06,566.00 C282.64,566.00 282.87,565.59 282.56,565.09 C281.50,563.38 283.11,561.28 285.30,561.51 C286.51,561.64 288.06,561.80 288.75,561.87 C290.19,562.02 290.59,577.00 289.15,577.00 C288.69,577.00 287.82,578.01 287.22,579.25 C286.51,580.72 286.09,580.98 286.00,580.00 C285.90,578.96 285.60,579.11 285.00,580.50 C284.41,581.87 284.12,580.23 284.07,575.25 ZM 364.38 581.14 C366.83,583.42 367.41,583.44 369.51,581.35 C371.05,579.81 370.81,579.34 366.04,574.60 C361.17,569.76 360.84,569.60 359.71,571.50 C357.86,574.60 358.08,576.97 360.32,578.17 C361.45,578.78 363.27,580.11 364.38,581.14 ZM 315.00 495.00 C315.00,495.64 323.19,496.00 337.56,496.00 C352.34,496.00 359.91,495.66 359.50,495.00 C359.12,494.38 350.49,494.00 336.94,494.00 C322.98,494.00 315.00,494.36 315.00,495.00 ZM 374.67 542.33 C375.90,543.57 376.00,543.02 376.00,535.00 C376.00,530.33 375.58,527.00 375.00,527.00 C373.89,527.00 373.58,541.25 374.67,542.33 ZM 378.59 591.87 C377.99,592.34 376.23,593.03 374.67,593.40 L 371.85 594.08 L 373.67 591.57 C374.68,590.19 375.86,589.05 376.31,589.03 C376.75,589.01 376.79,588.44 376.40,587.75 C376.00,587.06 376.88,587.59 378.34,588.92 C379.80,590.26 381.00,591.57 381.00,591.84 C381.00,592.11 380.70,592.04 380.34,591.68 C379.98,591.31 379.19,591.40 378.59,591.87 ZM 274.38 496.55 C274.05,495.70 274.11,494.21 274.51,493.25 C275.11,491.79 275.32,491.75 275.77,493.00 C276.06,493.83 276.63,494.73 277.04,495.00 C277.45,495.27 277.15,496.09 276.38,496.80 C275.22,497.87 274.87,497.83 274.38,496.55 ZM 367.35 510.00 C368.17,511.65 368.54,512.99 368.17,512.97 C366.93,512.91 363.60,510.00 364.78,510.00 C365.42,510.00 365.68,509.33 365.36,508.50 C364.33,505.80 365.82,506.93 367.35,510.00 ZM 156.00 464.93 C156.00,463.80 164.20,459.08 174.91,453.66 C164.60,459.11 156.00,464.18 156.00,464.93 ZM 536.84 459.72 C529.62,457.90 523.36,452.26 520.75,443.92 C519.64,440.37 519.29,438.85 519.65,436.67 C519.63,438.65 519.97,441.26 520.81,444.00 C523.25,451.95 529.65,457.70 536.84,459.72 Z" fill="rgb(47,99,144)"/>
<path d="M 387.02 604.81 L 386.80 602.00 C386.59,599.23 386.28,599.00 382.79,599.00 C380.70,599.00 379.00,598.55 379.00,598.00 C379.00,597.45 377.09,596.99 374.75,596.98 C372.41,596.98 369.83,596.53 369.00,596.00 C368.17,595.47 367.99,595.02 368.58,595.02 C369.18,595.01 369.67,594.34 369.67,593.54 C369.67,592.74 369.34,592.29 368.95,592.53 C367.92,593.17 365.68,587.33 366.46,586.06 C366.83,585.47 368.23,585.27 369.57,585.61 C370.98,585.96 372.68,585.68 373.57,584.94 C374.88,583.86 376.07,584.62 381.53,590.03 C385.06,593.53 388.20,596.13 388.51,595.82 C388.83,595.51 387.67,594.06 385.95,592.61 C384.22,591.16 378.29,585.23 372.76,579.44 C370.91,577.51 369.39,575.90 368.15,574.53 C370.29,576.78 373.48,579.96 378.07,584.51 L 393.21 599.50 L 394.86 597.11 C395.76,595.79 402.04,584.54 408.80,572.11 C415.57,559.67 426.19,540.28 432.42,529.00 C438.64,517.72 445.61,505.04 447.91,500.81 C450.20,496.57 453.42,491.98 455.07,490.59 C460.54,485.99 470.10,484.71 478.07,487.53 C483.58,489.47 485.50,491.23 485.78,494.58 C485.90,496.05 487.57,499.00 489.50,501.13 C493.44,505.49 493.63,506.54 491.47,511.73 C489.45,516.57 490.22,518.78 492.98,516.02 C495.17,513.83 495.89,513.64 497.63,514.77 C499.58,516.03 507.54,531.37 507.77,534.28 C508.02,537.55 510.22,542.11 512.43,543.95 C513.30,544.66 514.00,545.84 514.00,546.56 C514.00,547.28 515.18,550.58 516.62,553.91 C519.28,560.03 519.27,563.43 516.61,562.40 C515.65,562.03 514.56,562.95 513.49,565.02 C511.92,568.06 511.65,568.17 507.42,567.54 C504.55,567.11 503.00,567.25 503.00,567.94 C503.00,568.52 503.75,569.00 504.67,569.00 C505.58,569.00 507.09,569.79 508.01,570.75 C509.51,572.31 509.53,572.75 508.23,574.75 C506.93,576.76 506.94,577.00 508.38,577.00 C509.27,577.00 510.00,577.45 510.00,578.00 C510.00,578.55 509.50,579.00 508.88,579.00 C508.27,579.00 508.00,579.87 508.27,580.94 C508.66,582.42 508.05,583.13 505.74,583.94 C502.08,585.22 451.37,585.41 450.59,584.15 C450.09,583.33 455.06,570.65 458.46,564.08 L 460.05 561.00 L 473.47 561.00 C480.85,561.00 487.12,560.62 487.41,560.14 C487.91,559.34 481.03,542.24 478.91,539.00 C478.37,538.17 476.05,533.56 473.77,528.75 C471.49,523.94 469.34,520.00 469.00,520.00 C468.65,520.00 462.80,530.69 455.99,543.75 C449.18,556.81 439.23,575.83 433.89,586.00 L 424.17 604.50 L 392.83 604.76 ZM 364.72 570.51 C363.03,568.26 362.59,566.92 362.50,565.21 C362.38,563.17 362.16,561.50 362.01,561.50 C361.87,561.50 361.64,560.49 361.51,559.25 C361.38,558.01 361.69,557.00 362.20,557.00 C362.70,557.00 362.86,556.58 362.54,556.06 C361.75,554.78 364.87,553.15 367.03,553.72 C369.60,554.39 373.42,552.03 376.92,547.61 L 380.00 543.72 L 380.00 526.36 C380.00,513.14 379.70,509.00 378.75,509.00 C377.86,509.00 377.59,510.66 377.80,514.75 C377.98,518.23 377.75,520.00 377.22,519.23 C375.76,517.09 374.38,518.98 366.97,534.29 C369.51,526.88 365.92,516.96 357.58,515.00 C358.83,514.83 360.00,514.31 360.00,513.62 C360.00,512.86 360.90,511.63 361.99,510.87 C363.09,510.12 364.14,508.60 364.34,507.50 C364.54,506.40 365.03,504.73 365.44,503.79 C366.13,502.21 366.38,502.20 368.59,503.65 C370.09,504.63 371.00,504.81 371.00,504.12 C371.00,503.50 370.30,503.00 369.44,503.00 C365.97,503.00 370.69,494.26 374.92,492.86 C375.45,492.68 374.85,492.06 373.48,491.25 C383.36,496.52 390.53,506.62 393.10,519.00 C394.91,527.67 393.79,541.60 390.76,548.21 C386.15,558.29 381.14,562.29 365.21,568.61 C364.36,568.94 363.99,569.31 364.72,570.51 ZM 520.53 433.22 C520.00,433.57 519.68,434.85 519.65,436.67 C519.31,438.73 519.60,440.19 520.57,443.32 C519.50,440.16 518.78,439.57 516.48,439.28 C514.84,439.06 510.12,438.04 506.00,437.00 C496.44,434.59 485.54,432.12 474.46,429.82 C474.95,429.53 475.78,428.39 476.50,427.01 C477.35,425.36 478.37,424.06 478.77,424.13 C480.85,424.44 483.99,423.91 483.88,423.25 C483.54,421.10 484.22,420.10 486.25,419.78 C487.52,419.58 485.66,418.90 482.00,418.23 C470.30,416.07 465.65,415.62 466.31,416.70 C466.66,417.25 469.74,418.00 473.16,418.36 C476.59,418.72 479.70,419.52 480.08,420.13 C480.47,420.76 481.38,420.91 482.14,420.48 C483.14,419.91 483.22,420.02 482.43,420.88 C481.09,422.34 477.43,423.23 473.50,423.05 C469.54,422.88 456.83,425.16 457.57,425.91 C457.77,426.12 460.55,426.87 463.85,427.67 C446.47,424.26 429.54,421.42 417.50,420.00 C409.74,419.09 398.81,418.26 387.65,417.64 C398.81,418.25 409.61,419.06 416.90,419.93 C430.72,421.59 433.71,421.69 435.90,420.58 C439.79,418.61 453.81,415.75 459.50,415.76 C464.30,415.77 464.20,415.72 457.11,414.43 C455.06,414.06 452.84,413.69 450.47,413.34 C450.79,413.38 451.10,413.43 451.41,413.47 C471.99,416.18 499.83,420.84 514.35,424.01 C522.03,425.68 523.73,426.04 525.14,425.18 C523.00,427.37 521.48,430.02 520.54,433.18 ZM 532.57 420.41 C538.83,417.89 546.59,417.64 551.66,420.30 C555.79,422.47 560.79,428.60 562.01,433.00 C562.22,433.72 562.38,434.45 562.50,435.17 C561.92,433.69 561.68,433.82 560.46,436.00 C559.70,437.38 559.05,439.24 559.04,440.13 C558.99,442.29 551.75,448.77 548.48,449.59 C544.72,450.54 538.13,449.23 534.84,446.89 C530.75,443.97 528.94,439.82 528.77,432.97 C528.64,427.66 528.95,426.66 531.49,424.01 C534.08,421.30 534.37,419.94 532.57,420.41 ZM 539.36 442.83 C540.54,443.40 543.15,443.90 545.16,443.93 C554.61,444.11 557.34,429.33 548.64,425.15 C545.15,423.48 539.61,424.39 536.94,427.06 C533.33,430.67 534.86,440.65 539.36,442.83 ZM 587.05 453.68 C584.81,455.24 568.32,456.33 567.48,454.97 C567.21,454.52 567.75,451.64 568.69,448.58 C570.74,441.92 572.02,441.62 578.17,446.29 C580.55,448.09 583.98,450.18 585.78,450.92 C588.96,452.23 589.00,452.31 587.05,453.68 ZM 364.38 581.14 C363.27,580.11 361.45,578.78 360.32,578.17 C358.08,576.97 357.86,574.60 359.71,571.50 C360.84,569.60 361.17,569.76 366.04,574.60 C370.81,579.34 371.05,579.81 369.51,581.35 C367.41,583.44 366.83,583.42 364.38,581.14 ZM 470.00 566.96 C470.00,568.21 493.84,568.39 495.79,567.15 C496.50,566.70 491.03,566.24 483.54,566.13 C474.69,565.99 470.00,566.28 470.00,566.96 ZM 378.59 591.87 C379.19,591.40 379.98,591.31 380.34,591.68 C380.70,592.04 381.00,592.11 381.00,591.84 C381.00,591.57 379.80,590.26 378.34,588.92 C376.88,587.59 376.00,587.06 376.40,587.75 C376.79,588.44 376.75,589.01 376.31,589.03 C375.86,589.05 374.68,590.19 373.67,591.57 L 371.85 594.08 L 374.67 593.40 C376.23,593.03 377.99,592.34 378.59,591.87 ZM 534.30 594.37 C533.52,595.15 531.52,595.19 530.78,594.44 C529.99,593.65 531.06,590.00 532.08,590.00 C533.25,590.00 535.07,593.59 534.30,594.37 ZM 367.35 510.00 C365.82,506.93 364.33,505.80 365.36,508.50 C365.68,509.33 365.42,510.00 364.78,510.00 C363.60,510.00 366.93,512.91 368.17,512.97 C368.54,512.99 368.17,511.65 367.35,510.00 ZM 509.42 591.36 C509.07,592.26 508.38,593.00 507.89,593.00 C506.75,593.00 506.78,591.90 507.96,590.03 C509.14,588.16 510.25,589.18 509.42,591.36 ZM 428.47 410.81 C419.90,410.04 410.40,409.38 400.18,408.85 C379.14,407.76 356.79,408.32 334.35,410.34 C333.65,410.39 332.91,410.45 332.12,410.52 C364.89,407.44 394.65,407.50 428.47,410.81 ZM 355.16 514.75 C348.96,514.35 332.19,514.03 313.89,513.99 L 274.29 513.91 L 314.33 513.98 C336.36,514.01 354.59,514.26 354.85,514.52 C354.94,514.61 355.04,514.68 355.16,514.75 ZM 561.98 444.95 C560.49,450.19 557.10,454.75 552.48,457.59 C552.57,457.52 552.67,457.45 552.76,457.37 C556.78,455.02 560.26,449.97 561.98,444.95 ZM 536.84 459.72 C539.84,460.56 542.97,460.76 546.01,460.19 C545.63,460.27 545.25,460.34 544.87,460.41 C541.91,460.88 538.79,460.49 535.80,459.43 C536.14,459.53 536.49,459.63 536.84,459.72 ZM 324.52 568.00 L 361.48 605.00 L 364.49 605.00 L 361.50 605.03 L 324.52 568.00 ZM 523.02 449.10 C522.16,447.69 521.47,446.19 520.98,444.63 C521.53,446.23 522.22,447.72 523.02,449.10 ZM 302.57 414.13 C298.02,414.82 293.47,415.59 288.96,416.41 L 288.95 416.41 C288.38,416.51 287.81,416.61 287.24,416.71 C292.33,415.77 297.45,414.91 302.57,414.13 ZM 365.59 537.15 C365.32,537.64 364.88,538.20 364.34,538.75 C364.81,538.25 365.22,537.71 365.59,537.15 ZM 342.50 416.92 C342.64,416.90 342.81,416.87 342.99,416.85 C342.81,416.87 342.65,416.90 342.50,416.92 C341.83,417.05 340.94,417.19 339.92,417.33 C340.94,417.19 341.83,417.05 342.50,416.92 Z" fill="rgb(54,131,151)"/>
<path d="M 475.43 585.00 C489.16,584.97 503.83,584.61 505.74,583.94 C508.05,583.13 508.66,582.42 508.27,580.94 C508.00,579.87 508.27,579.00 508.88,579.00 C509.50,579.00 510.00,578.55 510.00,578.00 C510.00,577.45 509.27,577.00 508.38,577.00 C506.94,577.00 506.93,576.76 508.23,574.75 C509.53,572.75 509.51,572.31 508.01,570.75 C507.09,569.79 505.58,569.00 504.67,569.00 C503.75,569.00 503.00,568.52 503.00,567.94 C503.00,567.25 504.55,567.11 507.42,567.54 C511.65,568.17 511.92,568.06 513.49,565.02 C514.56,562.95 515.65,562.03 516.61,562.40 C519.27,563.43 519.28,560.03 516.62,553.91 C515.18,550.58 514.00,547.28 514.00,546.56 C514.00,545.84 513.30,544.66 512.43,543.95 C510.22,542.11 508.02,537.55 507.77,534.28 C507.54,531.37 499.58,516.03 497.63,514.77 C495.89,513.64 495.17,513.83 492.98,516.02 C490.22,518.78 489.45,516.57 491.47,511.73 C492.66,508.89 493.13,507.29 492.68,505.71 C492.88,506.26 493.00,506.76 493.00,507.13 C493.00,508.16 493.56,509.01 494.25,509.02 C494.94,509.03 498.22,514.10 501.54,520.27 C504.86,526.45 515.43,545.85 525.03,563.39 L 542.47 595.27 L 548.33 588.89 C553.92,582.78 561.96,573.20 577.74,553.80 L 584.98 544.90 L 578.05 536.70 C567.00,523.63 540.67,492.01 538.67,489.39 L 536.83 487.00 L 578.95 487.00 L 580.59 484.50 C582.20,482.04 582.45,482.00 595.43,482.00 L 608.63 482.00 L 614.37 476.00 L 636.69 476.00 C655.85,476.00 659.00,476.21 659.00,477.50 C659.00,478.79 655.99,479.00 637.88,479.00 L 616.76 479.00 L 613.35 482.00 C609.93,485.00 609.93,485.00 597.12,485.00 C585.98,485.00 584.09,485.24 582.65,486.83 C581.74,487.83 581.00,489.16 581.00,489.78 C581.00,490.40 584.33,494.86 588.41,499.70 C592.48,504.54 598.22,511.39 601.16,514.92 C604.10,518.45 607.00,521.50 607.62,521.71 C608.23,521.91 613.17,516.66 618.59,510.04 C624.02,503.42 628.97,498.00 629.60,498.00 C630.24,498.00 631.32,498.67 632.00,499.50 C632.99,500.70 632.99,501.30 632.00,502.50 C631.26,503.40 631.17,504.00 631.79,504.00 C632.36,504.00 634.07,502.54 635.59,500.75 C637.11,498.96 638.10,498.22 637.77,499.09 C637.31,500.35 637.71,500.59 639.64,500.22 C641.97,499.77 642.09,499.98 641.89,504.12 C641.77,506.53 641.02,509.27 640.22,510.21 C639.41,511.15 639.05,512.68 639.40,513.61 C639.77,514.58 639.34,516.08 638.37,517.14 C637.45,518.17 637.15,519.00 637.72,519.00 C638.29,519.00 639.31,518.33 639.99,517.51 C640.67,516.69 641.57,516.24 642.00,516.50 C642.43,516.76 643.33,516.31 644.01,515.49 C645.51,513.68 649.67,513.52 650.27,515.25 C650.51,515.94 648.53,519.26 645.86,522.64 C643.18,526.02 641.00,529.06 641.00,529.39 C641.00,529.73 645.08,530.00 650.07,530.00 C658.13,530.00 658.98,530.17 657.64,531.50 C656.53,532.61 653.74,533.01 646.82,533.03 C638.41,533.06 637.23,533.30 634.75,535.48 C633.24,536.81 632.00,538.24 632.00,538.65 C632.00,539.06 630.76,540.69 629.25,542.27 L 626.50 545.16 L 628.86 547.08 C630.86,548.70 632.87,549.00 641.86,549.02 C649.10,549.03 652.02,549.34 651.00,550.00 C650.17,550.53 645.76,550.98 641.20,550.98 L 632.90 551.00 L 635.57 554.50 C637.04,556.42 637.91,558.00 637.50,558.00 C637.10,558.00 637.49,559.10 638.37,560.45 C639.29,561.85 639.69,563.66 639.30,564.70 C638.49,566.86 635.82,569.01 634.76,568.35 C634.35,568.10 634.46,569.09 635.02,570.56 C635.91,572.91 635.82,573.15 634.27,572.55 C632.85,572.01 632.75,572.13 633.75,573.14 C635.24,574.64 635.42,576.38 634.00,575.50 C633.45,575.16 633.00,575.57 633.00,576.41 C633.00,577.24 633.90,578.41 635.00,579.00 C636.10,579.59 637.00,580.73 637.00,581.54 C637.00,582.53 638.08,583.00 640.38,583.00 C642.93,583.00 643.90,583.50 644.29,585.00 C644.61,586.22 645.65,587.00 646.97,587.00 C648.15,587.00 648.84,587.45 648.50,588.00 C648.16,588.55 648.27,589.00 648.74,589.00 C649.99,589.00 649.80,593.98 648.55,594.10 C647.97,594.15 644.41,594.18 640.64,594.15 C640.31,594.15 640.00,594.15 639.69,594.15 C637.65,594.14 636.21,594.14 634.88,593.76 C631.50,592.78 628.81,589.37 618.73,577.25 C612.67,569.96 607.03,564.00 606.21,564.00 C605.39,564.00 604.22,564.62 603.61,565.38 C603.00,566.14 595.57,575.37 587.10,585.90 L 571.70 605.03 L 542.10 604.76 L 512.50 604.50 L 507.58 594.75 L 502.66 585.00 L 476.89 585.00 C476.40,585.00 475.91,585.00 475.43,585.00 ZM 549.10 472.85 C547.23,473.48 543.18,474.00 540.10,474.00 C530.19,474.00 516.31,465.56 511.49,456.61 L 509.63 453.16 L 486.07 448.61 C448.47,441.35 423.23,437.62 392.50,434.79 C374.15,433.10 324.04,433.11 308.50,434.81 C281.61,437.75 247.97,443.84 227.51,449.47 C219.73,451.61 216.62,451.98 218.08,450.61 C218.31,450.39 224.96,448.14 232.86,445.60 C258.74,437.29 286.74,431.16 314.00,427.82 C327.94,426.12 380.29,426.11 398.50,427.81 C425.05,430.29 476.99,438.80 507.12,445.61 C513.44,447.03 513.83,447.29 515.62,451.30 C519.54,460.07 530.37,467.85 539.92,468.77 C543.25,469.09 546.74,468.46 552.31,466.53 C556.58,465.06 560.57,464.02 561.19,464.23 C562.71,464.74 553.34,471.42 549.10,472.85 ZM 587.05 453.68 C588.23,452.85 588.68,452.49 588.15,452.05 L 590.45 453.10 L 592.31 450.55 L 594.17 448.00 L 641.58 448.00 L 657.13 431.00 L 702.64 431.00 L 704.81 428.50 C707.77,425.10 712.38,425.12 714.62,428.54 C716.68,431.69 715.33,435.44 711.49,437.19 C709.34,438.17 708.51,438.01 706.02,436.17 C703.21,434.09 702.10,434.00 680.63,434.00 L 658.18 434.00 L 650.23 442.50 L 642.28 451.00 L 618.76 451.00 C598.52,451.00 595.06,451.22 593.93,452.58 C592.13,454.76 593.62,456.87 598.95,459.69 L 603.22 461.95 L 604.98 459.77 C606.64,457.73 607.06,457.67 611.95,458.80 C614.81,459.46 623.78,460.00 631.89,460.00 L 646.63 460.00 L 649.50 463.00 C652.05,465.66 653.03,466.00 658.19,466.00 C661.40,466.00 664.00,465.55 664.00,465.00 C664.00,462.91 668.10,460.00 671.05,460.00 C673.61,460.00 674.35,460.58 675.60,463.59 C676.95,466.82 676.94,467.44 675.53,469.59 C674.66,470.92 673.55,472.00 673.06,472.00 C672.57,472.00 671.53,472.24 670.76,472.54 C669.99,472.83 668.20,472.16 666.77,471.04 C664.78,469.47 662.71,469.00 657.79,469.00 C651.79,469.00 651.18,468.78 648.00,465.50 L 644.61 462.00 L 627.93 462.00 C614.32,462.00 611.02,462.28 610.00,463.50 C609.32,464.33 607.70,465.00 606.41,465.00 C604.16,465.00 595.79,461.24 595.23,459.98 C594.78,458.96 583.67,460.14 581.09,461.48 C578.99,462.56 577.81,462.34 572.09,459.76 C568.46,458.12 565.37,456.66 565.21,456.52 C565.05,456.37 565.79,454.73 566.86,452.88 C567.37,452.00 567.89,450.88 568.35,449.74 C567.62,452.34 567.24,454.58 567.48,454.97 C568.32,456.33 584.81,455.24 587.05,453.68 ZM 596.00 557.50 C596.00,563.83 596.40,568.00 597.00,568.00 C597.60,568.00 598.00,563.83 598.00,557.50 C598.00,551.17 597.60,547.00 597.00,547.00 C596.40,547.00 596.00,551.17 596.00,557.50 ZM 630.60 533.73 C631.22,535.07 631.51,534.52 631.78,531.50 C631.98,529.30 632.77,526.81 633.53,525.97 C634.73,524.64 634.64,524.26 632.92,523.18 C631.82,522.49 630.49,522.20 629.96,522.53 C628.77,523.26 628.69,527.00 629.86,527.00 C630.34,527.00 630.51,528.12 630.25,529.48 C629.99,530.85 630.14,532.76 630.60,533.73 ZM 534.30 594.37 C535.07,593.59 533.25,590.00 532.08,590.00 C531.06,590.00 529.99,593.65 530.78,594.44 C531.52,595.19 533.52,595.15 534.30,594.37 ZM 491.98 504.21 C491.43,503.34 490.62,502.37 489.50,501.13 C487.57,499.00 485.90,496.05 485.78,494.58 C485.67,493.29 485.32,492.24 484.61,491.32 C487.27,493.40 489.00,495.84 489.00,498.13 C489.00,499.26 489.90,501.33 491.00,502.73 C491.35,503.18 491.69,503.69 491.98,504.21 ZM 618.57 542.75 C619.26,544.29 619.40,544.23 619.75,542.25 C619.96,541.01 619.96,538.99 619.75,537.75 C619.38,535.63 619.31,535.66 618.57,538.25 C618.14,539.76 618.14,541.78 618.57,542.75 ZM 660.67 549.50 C660.67,550.33 659.84,551.00 658.83,551.00 C656.58,551.00 656.42,549.44 658.58,548.61 L 658.66 548.58 C659.75,548.16 660.24,547.97 660.47,548.14 C660.67,548.28 660.67,548.69 660.67,549.43 ZM 509.42 591.36 C510.25,589.18 509.14,588.16 507.96,590.03 C506.78,591.90 506.75,593.00 507.89,593.00 C508.38,593.00 509.07,592.26 509.42,591.36 ZM 473.33 486.35 C467.96,485.54 462.38,486.35 458.10,488.58 C461.24,486.74 464.87,486.01 469.57,486.01 C470.81,486.00 472.07,486.12 473.33,486.35 ZM 572.38 443.13 C571.13,443.13 570.31,444.14 569.48,446.27 L 569.48 446.25 C569.96,443.95 570.79,442.91 572.38,443.13 ZM 585.33 450.72 C583.47,449.86 580.43,447.99 578.24,446.34 C580.27,447.82 583.18,449.61 585.33,450.72 ZM 447.91 500.81 C449.17,498.47 450.40,496.47 451.64,494.76 C450.37,496.59 449.03,498.74 447.91,500.81 Z" fill="rgb(69,141,120)"/>
<path d="M 206.50 594.00 C206.20,594.48 206.92,594.84 208.31,594.96 C207.71,594.99 207.08,595.00 206.44,595.00 C203.13,595.00 200.50,594.64 200.06,594.15 C200.06,593.84 200.71,593.54 201.94,593.30 C203.21,593.11 205.00,593.00 207.06,593.00 C207.98,593.00 208.81,593.02 209.54,593.05 C208.04,593.17 206.78,593.55 206.50,594.00 Z" fill="rgb(114,113,178)"/>
<path d="M 539.36 442.83 C534.86,440.65 533.33,430.67 536.94,427.06 C539.61,424.39 545.15,423.48 548.64,425.15 C557.34,429.33 554.61,444.11 545.16,443.93 C543.15,443.90 540.54,443.40 539.36,442.83 Z" fill="rgb(87,157,165)"/>
<path d="M 660.67 549.50 L 660.67 549.43 C660.67,549.22 660.67,549.04 660.66,548.89 L 671.04 548.84 L 676.50 543.00 L 676.50 547.25 C676.50,551.31 676.64,551.50 679.50,551.50 C682.39,551.50 682.49,551.35 682.31,547.25 C682.10,542.60 682.82,542.03 685.35,544.83 C687.62,547.34 687.45,552.55 685.00,555.00 C682.12,557.88 678.36,557.51 674.85,554.00 C672.21,551.37 671.15,551.00 666.17,551.01 L 660.50 551.03 L 670.67 561.09 C670.99,561.40 671.30,561.71 671.60,562.01 C677.67,568.02 680.80,571.12 683.53,570.80 C686.58,570.43 689.12,565.75 694.69,556.00 C699.25,548.03 703.99,539.55 705.23,537.17 L 707.48 532.84 L 723.08 533.17 L 738.67 533.50 L 735.84 538.11 C734.28,540.65 733.00,543.02 733.00,543.38 C733.00,543.74 731.94,545.72 730.65,547.77 C729.35,549.82 728.19,551.95 728.07,552.50 C727.95,553.05 721.95,565.09 714.74,579.25 L 701.63 605.00 L 642.14 605.00 L 638.32 600.42 C636.22,597.90 632.47,593.51 630.00,590.66 C627.53,587.81 621.50,580.65 616.61,574.74 C616.51,574.63 616.42,574.51 616.32,574.40 C617.11,575.32 617.92,576.27 618.73,577.25 C628.81,589.37 631.50,592.78 634.88,593.76 C636.21,594.14 637.65,594.14 639.69,594.15 C640.00,594.15 640.31,594.15 640.64,594.15 C644.41,594.18 647.97,594.15 648.55,594.10 C649.80,593.98 649.99,589.00 648.74,589.00 C648.27,589.00 648.16,588.55 648.50,588.00 C648.84,587.45 648.15,587.00 646.97,587.00 C645.65,587.00 644.61,586.22 644.29,585.00 C643.90,583.50 642.93,583.00 640.38,583.00 C638.08,583.00 637.00,582.53 637.00,581.54 C637.00,580.73 636.10,579.59 635.00,579.00 C633.90,578.41 633.00,577.24 633.00,576.41 C633.00,575.57 633.45,575.16 634.00,575.50 C635.42,576.38 635.24,574.64 633.75,573.14 C632.75,572.13 632.85,572.01 634.27,572.55 C635.82,573.15 635.91,572.91 635.02,570.56 C634.46,569.09 634.35,568.10 634.76,568.35 C635.82,569.01 638.49,566.86 639.30,564.70 C639.69,563.66 639.29,561.85 638.37,560.45 C637.49,559.10 637.10,558.00 637.50,558.00 C637.91,558.00 637.04,556.42 635.57,554.50 L 632.90 551.00 L 639.96 550.99 C636.13,551.11 633.40,551.26 633.30,551.37 C632.97,551.70 649.96,571.00 662.73,584.79 C667.97,590.45 672.36,594.95 672.49,594.79 C673.70,593.29 684.00,574.62 684.00,573.92 C684.00,573.41 682.76,573.00 681.25,573.00 C679.09,573.00 676.11,570.62 667.24,561.80 L 655.99 550.61 L 645.72 550.84 C648.37,550.66 650.46,550.35 651.00,550.00 C652.02,549.34 649.10,549.03 641.86,549.02 C634.24,549.00 631.63,548.79 629.80,547.73 C631.87,548.90 635.41,549.00 651.14,548.93 L 657.96 548.90 C656.48,549.76 656.83,551.00 658.83,551.00 C659.84,551.00 660.67,550.33 660.67,549.50 ZM 642.74 526.73 C643.58,525.57 644.67,524.14 645.86,522.64 C648.53,519.26 650.51,515.94 650.27,515.25 C649.67,513.52 645.51,513.68 644.01,515.49 C643.33,516.31 642.43,516.76 642.00,516.50 C641.57,516.24 640.67,516.69 639.99,517.51 C639.31,518.33 638.29,519.00 637.72,519.00 C637.15,519.00 637.45,518.17 638.37,517.14 C639.34,516.08 639.77,514.58 639.40,513.61 C639.05,512.68 639.41,511.15 640.22,510.21 C641.02,509.27 641.77,506.53 641.89,504.12 C642.09,499.98 641.97,499.77 639.64,500.22 C637.71,500.59 637.31,500.35 637.77,499.09 C638.10,498.22 637.11,498.96 635.59,500.75 C634.07,502.54 632.36,504.00 631.79,504.00 C631.17,504.00 631.26,503.40 632.00,502.50 C632.99,501.30 632.99,500.70 632.00,499.50 C631.32,498.67 630.24,498.00 629.60,498.00 C628.97,498.00 624.02,503.42 618.59,510.04 C613.51,516.24 608.86,521.24 607.78,521.68 C608.94,521.15 614.71,514.74 621.13,506.81 C627.93,498.41 634.70,490.29 636.17,488.77 L 638.85 486.00 L 677.16 486.00 L 670.29 493.75 C666.51,498.01 661.78,503.52 659.78,506.00 C657.77,508.48 652.73,514.55 648.58,519.50 C646.24,522.29 644.13,524.90 642.74,526.73 ZM 729.75 530.39 C724.66,530.77 718.20,531.34 715.38,531.66 C712.06,532.04 710.02,531.85 709.57,531.11 C709.18,530.49 710.36,527.40 712.18,524.26 C714.01,521.12 715.79,517.83 716.15,516.97 C718.11,512.16 726.87,498.11 727.23,499.19 C728.02,501.55 724.23,511.26 722.85,510.41 C722.38,510.12 722.00,510.76 722.00,511.84 C722.00,513.44 722.64,513.76 725.56,513.63 C728.67,513.48 729.05,513.71 728.57,515.48 C728.27,516.59 728.02,517.86 728.01,518.31 C728.01,518.75 727.60,518.87 727.11,518.57 C726.62,518.27 726.25,518.58 726.27,519.26 C726.41,523.14 725.84,525.00 724.50,525.00 C723.67,525.00 723.00,525.45 723.00,526.00 C723.00,526.59 726.71,527.00 732.12,527.00 C739.69,527.00 741.05,527.23 740.12,528.36 C739.41,529.21 735.58,529.96 729.75,530.39 ZM 752.47 584.68 C751.49,585.65 747.41,586.00 737.00,586.00 L 722.87 586.00 L 723.54 583.75 C724.53,580.46 733.92,563.32 734.09,564.50 C734.17,565.05 734.18,565.84 734.12,566.25 C734.05,566.66 734.64,567.00 735.43,567.00 C737.37,567.00 740.16,569.93 739.40,571.16 C739.06,571.71 737.65,571.88 736.26,571.53 C733.18,570.76 729.00,574.22 729.00,577.56 C729.00,580.38 731.20,580.97 741.76,580.99 C750.76,581.00 754.76,582.38 752.47,584.68 ZM 637.88 479.00 C655.99,479.00 659.00,478.79 659.00,477.50 C659.00,476.21 655.85,476.00 636.69,476.00 L 682.53 476.00 L 696.50 462.00 C708.91,449.57 713.00,446.28 713.00,448.74 C713.00,449.14 706.37,456.12 698.26,464.24 L 683.53 479.00 L 637.88 479.00 ZM 606.41 465.00 C607.70,465.00 609.32,464.33 610.00,463.50 C609.32,464.33 607.94,465.00 606.94,465.00 C605.71,465.00 605.03,465.88 604.82,467.75 C604.52,470.35 604.23,470.50 599.50,470.43 C595.50,470.37 591.59,468.98 580.00,463.55 C575.59,461.48 571.59,459.59 568.86,458.28 C569.83,458.73 570.93,459.23 572.09,459.76 C577.81,462.34 578.99,462.56 581.09,461.48 C583.67,460.14 594.78,458.96 595.23,459.98 C595.79,461.24 604.16,465.00 606.41,465.00 ZM 636.55 534.15 C638.32,533.19 640.57,533.05 646.82,533.03 C653.74,533.01 656.53,532.61 657.64,531.50 C658.98,530.17 658.13,530.00 650.07,530.00 C645.08,530.00 641.00,529.73 641.00,529.39 C641.00,529.37 641.01,529.33 641.03,529.29 C641.39,529.68 647.41,530.00 654.73,530.00 L 668.46 530.00 L 677.12 521.38 C682.62,515.90 686.23,513.03 687.00,513.50 C687.81,514.00 685.13,517.34 678.88,523.62 L 669.54 533.00 L 653.52 533.03 C641.75,533.05 638.57,533.11 636.55,534.15 ZM 716.75 547.78 C720.13,548.95 726.15,546.22 723.49,544.73 C722.66,544.27 721.54,544.17 720.99,544.50 C720.45,544.84 720.00,544.72 720.00,544.23 C720.00,543.74 718.65,543.54 717.00,543.79 C713.25,544.34 713.11,546.53 716.75,547.78 ZM 634.21 524.23 C633.67,524.58 632.84,525.33 632.04,526.19 C631.09,527.20 630.43,528.75 630.15,530.27 C630.17,529.99 630.20,529.73 630.25,529.48 C630.51,528.12 630.34,527.00 629.86,527.00 C628.69,527.00 628.77,523.26 629.96,522.53 C630.49,522.20 631.82,522.49 632.92,523.18 C633.59,523.60 634.02,523.92 634.21,524.23 ZM 694.08 508.34 C692.74,509.80 691.31,511.00 690.88,511.00 C689.19,511.00 689.26,509.31 691.06,506.97 C692.10,505.61 692.97,505.05 692.98,505.72 C692.99,506.45 693.70,506.69 694.75,506.31 C696.08,505.83 695.91,506.33 694.08,508.34 ZM 793.64 533.50 C791.96,535.19 791.62,535.28 790.67,534.33 C789.30,532.96 790.08,532.00 792.57,532.00 C794.86,532.00 794.98,532.17 793.64,533.50 ZM 640.00 574.00 C638.89,574.72 639.48,574.97 642.31,574.98 C644.60,574.99 645.87,574.60 645.50,574.00 C644.72,572.74 641.96,572.74 640.00,574.00 ZM 605.21 564.23 C605.56,564.08 605.91,564.00 606.21,564.00 C606.44,564.00 607.04,564.46 607.91,565.28 C606.78,564.40 605.93,564.09 605.21,564.23 ZM 631.08 534.41 C631.30,534.18 631.51,533.53 631.67,532.61 C631.51,533.92 631.33,534.49 631.08,534.41 Z" fill="rgb(81,149,92)"/>
<path d="M 752.47 584.68 C754.76,582.38 750.76,581.00 741.76,580.99 C731.20,580.97 729.00,580.38 729.00,577.56 C729.00,574.83 731.80,572.00 734.51,571.50 C734.41,571.70 734.61,572.03 735.04,572.55 C736.45,574.25 739.16,574.44 740.66,572.94 C741.35,572.25 749.08,571.99 763.31,572.19 C775.19,572.36 784.54,572.14 784.10,571.70 C783.66,571.25 773.90,570.72 762.42,570.52 C748.77,570.27 741.42,569.77 741.19,569.07 C740.61,567.33 738.98,567.84 739.19,569.61 C738.46,568.35 736.75,567.00 735.43,567.00 C734.64,567.00 734.05,566.66 734.12,566.25 C734.18,565.84 734.17,565.05 734.09,564.50 C733.97,563.67 729.24,571.99 726.13,578.10 C727.08,576.17 728.21,573.97 729.37,571.77 L 734.50 562.03 L 748.69 562.02 C756.50,562.01 763.13,561.60 763.43,561.11 C763.73,560.63 762.14,556.32 759.90,551.53 C757.66,546.75 755.98,542.69 756.16,542.51 C756.35,542.33 758.08,541.92 760.00,541.60 C763.39,541.05 763.62,541.22 767.50,547.27 L 771.50 553.50 L 783.00 554.31 C789.33,554.76 812.71,555.33 834.97,555.59 C874.78,556.04 875.49,556.01 878.27,553.96 C881.99,551.21 886.69,551.68 889.20,555.05 C891.52,558.18 890.45,562.00 886.55,564.56 C883.02,566.87 879.35,565.71 876.85,561.47 C874.96,558.27 874.43,558.00 869.96,558.00 C867.30,558.00 864.84,558.45 864.50,559.00 C864.16,559.55 864.81,560.00 865.94,560.00 C867.10,560.00 868.00,560.65 868.00,561.50 C868.00,562.46 867.04,563.00 865.33,563.00 C863.28,563.00 861.03,564.76 855.74,570.50 L 848.83 578.00 L 828.42 578.00 C817.19,578.00 808.00,578.30 808.00,578.66 C808.00,579.03 810.92,584.85 814.50,591.61 C818.36,598.91 820.58,604.14 819.98,604.52 C819.42,604.86 812.21,605.03 803.97,604.89 C802.89,604.87 801.89,604.86 800.95,604.85 C793.75,604.75 790.53,604.70 788.28,603.19 C786.16,601.77 784.92,599.05 782.03,593.75 L 777.82 586.00 L 737.00 586.00 C747.41,586.00 751.49,585.65 752.47,584.68 ZM 792.50 551.00 C792.90,551.64 789.26,552.00 782.31,551.99 L 771.50 551.98 L 767.79 545.99 C764.09,540.00 764.09,540.00 759.23,540.00 C754.64,540.00 754.28,539.80 752.66,536.42 L 750.96 532.85 L 758.90 533.17 C765.17,533.43 766.62,533.24 765.80,532.25 C765.14,531.46 762.05,531.00 757.36,531.00 L 749.97 531.00 L 747.79 526.50 C746.59,524.03 745.30,522.00 744.93,522.00 C744.57,522.00 743.13,523.71 741.75,525.80 L 740.38 527.88 C740.45,527.16 738.47,527.00 732.12,527.00 C726.71,527.00 723.00,526.59 723.00,526.00 C723.00,525.45 723.67,525.00 724.50,525.00 C725.84,525.00 726.41,523.14 726.27,519.26 C726.25,518.58 726.62,518.27 727.11,518.57 C727.60,518.87 728.01,518.75 728.01,518.31 C728.02,517.86 728.27,516.59 728.57,515.48 C729.05,513.71 728.67,513.48 725.56,513.63 C722.64,513.76 722.00,513.44 722.00,511.84 C722.00,510.76 722.38,510.12 722.85,510.41 C724.23,511.26 728.02,501.55 727.23,499.19 C726.87,498.11 718.11,512.16 716.15,516.97 C716.11,517.05 716.06,517.16 716.00,517.28 C716.27,515.18 730.48,491.92 732.97,489.53 C735.78,486.84 736.67,486.59 744.76,486.29 C752.13,486.01 754.01,486.27 756.75,487.97 C758.54,489.07 760.00,490.65 760.00,491.49 C760.00,492.32 760.41,493.00 760.90,493.00 C761.40,493.00 763.21,495.48 764.91,498.50 L 768.02 504.00 L 800.59 504.00 C826.21,504.00 833.08,504.27 832.75,505.25 C832.43,506.20 824.87,506.62 801.25,507.00 L 770.17 507.50 L 771.54 510.75 C772.49,513.02 773.60,514.03 775.20,514.08 C776.47,514.13 792.29,514.17 810.37,514.17 L 843.24 514.16 L 846.19 510.58 C849.48,506.60 853.01,505.92 856.78,508.56 C860.12,510.90 859.88,517.16 856.34,519.94 C853.40,522.26 850.80,521.95 847.44,518.89 C845.49,517.11 843.26,517.00 810.19,517.00 C790.32,517.00 775.00,517.39 775.00,517.89 C775.00,518.38 775.82,519.79 776.82,521.03 L 778.65 523.28 L 812.78 523.08 L 846.91 522.88 L 852.78 528.94 L 858.66 535.00 L 868.91 535.00 C876.67,535.00 879.07,535.30 878.75,536.25 C878.46,537.12 875.16,537.59 867.98,537.79 L 857.63 538.07 L 845.50 526.06 L 813.17 525.95 C795.38,525.89 780.59,526.07 780.30,526.37 C780.01,526.66 780.72,528.42 781.87,530.29 C783.03,532.16 783.72,533.95 783.41,534.26 C783.10,534.57 783.58,535.96 784.49,537.34 L 786.14 539.86 L 781.82 540.42 C779.44,540.73 776.15,541.15 774.50,541.34 C772.85,541.54 775.05,541.77 779.39,541.85 C786.41,541.98 787.52,542.27 789.59,544.50 L 791.90 547.00 L 840.78 547.00 L 845.86 543.50 L 850.95 540.00 L 901.20 540.00 L 904.00 537.00 C909.20,531.43 917.00,533.73 917.00,540.83 C917.00,544.63 913.98,548.00 910.58,548.00 C909.24,548.00 906.82,546.88 905.18,545.50 L 902.21 543.00 L 876.73 543.00 C854.82,543.00 851.06,543.22 849.95,544.57 C846.17,549.12 841.76,549.55 794.69,549.97 C793.08,549.99 792.15,550.43 792.50,551.00 ZM 804.67 572.75 C806.03,574.97 806.35,575.00 826.81,575.00 L 847.57 575.00 L 852.56 569.75 C855.30,566.86 858.63,563.26 859.95,561.75 L 862.35 559.00 L 796.98 559.00 L 800.14 564.75 C801.87,567.91 803.91,571.51 804.67,572.75 ZM 712.47 450.00 L 699.01 463.48 C706.77,455.69 713.00,449.13 713.00,448.74 C713.00,446.41 709.33,449.23 698.42,460.08 L 710.63 447.90 L 731.13 447.95 L 751.64 448.01 L 754.00 445.51 C757.01,442.30 763.38,441.97 764.96,444.93 C766.57,447.94 766.21,449.88 763.55,452.55 C760.49,455.60 759.87,455.60 756.18,452.50 C753.23,450.01 753.11,450.00 732.84,450.00 ZM 675.01 527.50 L 678.88 523.62 C685.13,517.34 687.81,514.00 687.00,513.50 C686.23,513.03 682.62,515.90 677.12,521.38 L 676.95 521.55 L 680.79 517.63 C692.37,505.83 692.89,505.11 692.36,501.86 C691.57,496.97 694.51,493.56 699.40,493.70 C704.30,493.84 706.00,495.47 706.00,500.05 C706.00,504.76 702.07,508.46 697.94,507.64 C695.69,507.19 693.68,508.80 682.44,520.06 ZM 793.64 533.50 C794.30,532.84 794.60,532.47 794.47,532.26 C797.76,532.07 803.23,532.00 811.79,532.00 C830.41,532.00 833.95,531.76 835.04,530.45 C837.97,526.92 844.79,530.92 842.39,534.75 C841.13,536.77 836.96,537.56 835.46,536.06 C834.85,535.45 825.76,534.93 812.55,534.77 C802.21,534.64 796.18,534.44 793.05,534.08 C793.22,533.91 793.42,533.72 793.64,533.50 ZM 853.50 550.00 C853.16,550.55 852.26,551.00 851.50,551.00 C848.99,551.00 848.98,549.25 851.47,547.61 C853.51,546.28 857.06,546.01 872.21,546.03 C888.51,546.06 890.29,546.22 888.56,547.53 C887.04,548.68 883.11,549.00 870.37,549.00 C860.61,549.00 853.87,549.40 853.50,550.00 ZM 732.00 580.00 C732.00,580.64 740.67,581.00 756.00,581.00 C771.33,581.00 780.00,580.64 780.00,580.00 C780.00,579.36 771.33,579.00 756.00,579.00 C740.67,579.00 732.00,579.36 732.00,580.00 ZM 682.81 543.24 C682.33,543.61 682.21,544.92 682.31,547.25 C682.49,551.35 682.39,551.50 679.50,551.50 C676.64,551.50 676.50,551.31 676.50,547.25 L 676.50 543.84 C678.54,542.86 680.88,542.63 682.81,543.24 ZM 716.75 547.78 C713.11,546.53 713.25,544.34 717.00,543.79 C718.65,543.54 720.00,543.74 720.00,544.23 C720.00,544.72 720.45,544.84 720.99,544.50 C721.54,544.17 722.66,544.27 723.49,544.73 C726.15,546.22 720.13,548.95 716.75,547.78 ZM 694.08 508.34 C695.91,506.33 696.08,505.83 694.75,506.31 C693.70,506.69 692.99,506.45 692.98,505.72 C692.97,505.05 692.10,505.61 691.06,506.97 C689.26,509.31 689.19,511.00 690.88,511.00 C691.31,511.00 692.74,509.80 694.08,508.34 ZM 749.96 496.85 C749.43,497.49 749.73,497.38 750.61,496.62 C752.30,495.14 751.67,490.47 749.93,491.55 C749.35,491.90 749.36,492.81 749.95,493.91 C750.55,495.04 750.56,496.12 749.96,496.85 ZM 729.75 530.39 C735.23,529.99 738.94,529.30 739.96,528.51 L 739.23 529.61 L 724.94 530.83 C722.97,531.00 721.18,531.14 719.57,531.24 C722.65,530.96 726.48,530.64 729.75,530.39 ZM 682.47 476.00 L 696.50 462.00 L 682.53 476.00 ZM 712.05 524.49 C710.58,527.07 709.56,529.57 709.50,530.66 C709.38,529.69 710.25,527.58 712.05,524.49 ZM 674.42 545.23 L 672.78 546.99 L 673.73 545.92 C673.94,545.68 674.17,545.45 674.42,545.23 ZM 641.03 529.29 C641.39,529.68 647.41,530.00 654.73,530.00 C647.41,530.00 641.39,529.68 641.03,529.29 Z" fill="rgb(91,150,71)"/>
<path d="M 738.23 533.49 L 723.08 533.17 L 707.48 532.84 L 705.23 537.17 C704.39,538.79 701.93,543.22 699.01,548.39 C702.04,542.96 704.68,538.07 705.69,536.00 C707.15,532.97 710.07,527.68 712.18,524.23 C712.34,523.97 712.50,523.70 712.66,523.44 C712.50,523.71 712.34,523.99 712.18,524.26 C712.14,524.34 712.10,524.41 712.05,524.49 C710.25,527.58 709.38,529.70 709.50,530.66 C709.49,530.86 709.51,531.01 709.57,531.11 C710.02,531.85 712.06,532.04 715.38,531.66 C716.39,531.54 717.86,531.40 719.57,531.24 C721.18,531.14 722.97,531.00 724.94,530.83 L 739.23 529.61 L 739.96 528.51 C739.97,528.50 739.99,528.49 740.00,528.48 C738.99,530.20 738.30,531.67 738.50,532.00 C738.62,532.20 738.52,532.74 738.23,533.49 ZM 773.00 580.00 C773.47,580.30 774.11,580.53 774.81,580.69 C770.74,580.89 764.36,581.00 756.00,581.00 C750.82,581.00 746.41,580.96 742.83,580.88 C747.09,580.82 751.36,580.52 753.00,580.00 C754.58,579.49 751.20,579.16 743.80,579.10 C747.20,579.03 751.28,579.00 756.00,579.00 C763.13,579.00 768.81,579.08 772.86,579.23 C772.35,579.38 772.43,579.63 773.00,580.00 ZM 773.75 551.98 L 782.31 551.99 C788.94,552.00 792.55,551.68 792.53,551.09 L 793.66 553.00 L 794.72 554.80 C789.31,554.63 785.16,554.47 783.00,554.31 L 771.50 553.50 L 777.00 553.71 C780.91,553.86 781.92,553.67 780.50,553.03 C779.40,552.54 776.92,552.10 775.00,552.06 C774.53,552.05 774.12,552.03 773.75,551.98 ZM 752.06 531.00 L 757.36 531.00 C762.05,531.00 765.14,531.46 765.80,532.25 C766.62,533.24 765.17,533.43 758.90,533.17 L 752.07 532.89 C752.42,532.65 752.99,532.44 753.80,532.15 L 756.50 531.16 L 753.24 531.08 C752.80,531.07 752.41,531.05 752.06,531.00 ZM 876.53 560.94 C875.47,559.45 874.37,559.01 872.25,559.01 C869.66,559.00 869.00,559.41 869.00,561.00 C869.00,562.58 868.33,563.00 865.83,563.00 C865.03,563.00 864.32,563.11 863.57,563.43 C864.21,563.13 864.78,563.00 865.33,563.00 C867.04,563.00 868.00,562.46 868.00,561.50 C868.00,560.65 867.10,560.00 865.94,560.00 C864.81,560.00 864.16,559.55 864.50,559.00 C864.84,558.45 867.30,558.00 869.96,558.00 C874.17,558.00 874.89,558.24 876.53,560.94 ZM 640.00 574.00 C641.96,572.74 644.72,572.74 645.50,574.00 C645.87,574.60 644.60,574.99 642.31,574.98 C639.48,574.97 638.89,574.72 640.00,574.00 ZM 749.96 496.85 C750.56,496.12 750.55,495.04 749.95,493.91 C749.36,492.81 749.35,491.90 749.93,491.55 C751.67,490.47 752.30,495.14 750.61,496.62 C749.73,497.38 749.43,497.49 749.96,496.85 ZM 886.95 553.07 C889.39,554.28 891.00,556.69 890.33,559.50 C890.60,557.99 890.24,556.45 889.20,555.05 C888.57,554.21 887.80,553.54 886.95,553.07 ZM 888.87 562.52 C887.92,563.80 886.71,564.70 885.41,565.19 C885.79,565.02 886.17,564.81 886.55,564.56 C887.49,563.94 888.26,563.26 888.87,562.52 ZM 879.35 564.42 C878.60,563.89 877.93,563.18 877.37,562.28 C877.98,563.16 878.64,563.87 879.35,564.42 ZM 736.02 537.81 C734.36,540.51 733.00,543.01 733.00,543.38 C733.00,543.01 734.28,540.64 735.84,538.11 ZM 872.50 555.61 C873.98,555.50 875.02,555.36 875.80,555.18 C875.03,555.37 874.00,555.51 872.50,555.61 ZM 754.93 539.53 C754.02,539.09 753.52,538.22 752.73,536.57 C753.53,538.23 754.03,539.09 754.93,539.53 ZM 879.34 553.27 C879.85,552.98 880.37,552.75 880.90,552.59 C880.37,552.76 879.85,552.99 879.34,553.27 ZM 744.55 522.23 C744.72,522.08 744.85,522.00 744.93,522.00 C744.94,522.00 744.95,522.00 744.96,522.00 C744.85,522.02 744.71,522.10 744.55,522.23 ZM 683.53 570.79 C684.10,570.73 684.66,570.51 685.22,570.13 C684.66,570.51 684.10,570.73 683.53,570.80 C682.86,570.87 682.18,570.75 681.43,570.43 C682.18,570.75 682.86,570.87 683.53,570.79 Z" fill="rgb(126,174,131)"/>
<path d="M 735.04 572.55 C734.61,572.03 734.41,571.70 734.51,571.50 C735.11,571.39 735.70,571.39 736.26,571.53 C737.65,571.88 739.06,571.71 739.40,571.16 C739.64,570.77 739.53,570.20 739.19,569.61 C738.98,567.84 740.61,567.33 741.19,569.07 C741.42,569.77 748.77,570.27 762.42,570.52 C773.90,570.72 783.66,571.25 784.10,571.70 C784.54,572.14 775.19,572.36 763.31,572.19 C749.08,571.99 741.35,572.25 740.66,572.94 C739.16,574.44 736.45,574.25 735.04,572.55 ZM 773.75 551.98 C774.12,552.03 774.53,552.05 775.00,552.06 C776.92,552.10 779.40,552.54 780.50,553.03 C781.92,553.67 780.91,553.86 777.00,553.71 L 771.50 553.50 L 767.50 547.27 C763.62,541.22 763.39,541.05 760.00,541.60 C758.08,541.92 756.35,542.33 756.16,542.51 C755.98,542.69 757.66,546.75 759.90,551.53 C762.01,556.02 763.53,560.09 763.46,560.98 C763.53,558.82 752.28,534.64 750.94,534.17 C750.42,533.98 750.00,533.21 750.00,532.44 C750.00,531.39 748.45,527.74 747.05,525.06 C747.29,525.51 747.54,526.00 747.79,526.50 L 749.97 531.00 L 752.06 531.00 C752.41,531.05 752.80,531.07 753.24,531.08 L 756.50 531.16 L 753.80 532.15 C752.99,532.44 752.42,532.65 752.07,532.89 L 750.96 532.85 L 752.66 536.42 C752.69,536.47 752.71,536.52 752.73,536.57 C752.76,536.62 752.79,536.68 752.81,536.73 C753.56,538.28 754.05,539.10 754.93,539.53 L 754.93 539.53 C755.79,539.95 757.02,540.00 759.23,540.00 C764.09,540.00 764.09,540.00 767.79,545.99 L 771.50 551.98 ZM 470.00 566.96 C470.00,566.28 474.69,565.99 483.54,566.13 C491.03,566.24 496.50,566.70 495.79,567.15 C493.84,568.39 470.00,568.21 470.00,566.96 ZM 596.00 557.50 C596.00,551.17 596.40,547.00 597.00,547.00 C597.60,547.00 598.00,551.17 598.00,557.50 C598.00,563.83 597.60,568.00 597.00,568.00 C596.40,568.00 596.00,563.83 596.00,557.50 ZM 732.00 580.00 C732.00,579.56 736.15,579.25 743.80,579.10 C751.20,579.16 754.58,579.49 753.00,580.00 C751.36,580.52 747.09,580.82 742.83,580.88 C735.80,580.72 732.00,580.42 732.00,580.00 ZM 630.60 533.73 C630.23,532.94 630.05,531.51 630.15,530.27 C630.43,528.75 631.09,527.20 632.04,526.19 C632.84,525.33 633.67,524.58 634.21,524.23 C634.51,524.70 634.26,525.16 633.53,525.97 C632.77,526.81 631.98,529.30 631.78,531.50 C631.75,531.92 631.71,532.29 631.67,532.61 C631.51,533.53 631.30,534.18 631.08,534.41 C630.94,534.37 630.78,534.14 630.60,533.73 ZM 618.57 542.75 C618.14,541.78 618.14,539.76 618.57,538.25 C619.31,535.66 619.38,535.63 619.75,537.75 C619.96,538.99 619.96,541.01 619.75,542.25 C619.40,544.23 619.26,544.29 618.57,542.75 ZM 773.00 580.00 C772.43,579.63 772.35,579.38 772.86,579.23 C777.52,579.40 780.00,579.66 780.00,580.00 C780.00,580.29 778.21,580.52 774.81,580.69 C774.11,580.53 773.47,580.30 773.00,580.00 ZM 763.43 561.11 L 763.43 561.11 C763.18,561.52 758.46,561.87 752.33,561.98 C758.43,561.87 763.14,561.52 763.43,561.11 Z" fill="rgb(148,200,169)"/>
<path d="M 315.00 495.00 C315.00,494.36 322.98,494.00 336.94,494.00 C350.49,494.00 359.12,494.38 359.50,495.00 C359.91,495.66 352.34,496.00 337.56,496.00 C323.19,496.00 315.00,495.64 315.00,495.00 ZM 299.50 555.27 C298.78,555.17 298.03,555.00 297.37,554.79 C296.92,554.51 296.39,554.12 295.84,553.65 C298.55,552.86 317.26,552.92 325.00,553.87 C330.45,554.54 330.42,554.56 321.10,555.27 C311.42,556.02 304.75,556.02 299.50,555.27 ZM 374.67 542.33 C373.58,541.25 373.89,527.00 375.00,527.00 C375.58,527.00 376.00,530.33 376.00,535.00 C376.00,543.02 375.90,543.57 374.67,542.33 ZM 206.50 594.00 C206.78,593.55 208.04,593.17 209.54,593.05 C212.37,593.16 213.81,593.50 213.50,594.00 C213.22,594.45 211.04,594.83 208.31,594.96 C206.92,594.84 206.20,594.48 206.50,594.00 Z" fill="rgb(154,164,212)"/>
<path d="M 787.00 540.51 C787.00,541.17 788.10,542.90 789.45,544.35 L 789.57 544.49 C787.52,542.27 786.40,541.98 779.39,541.85 C775.05,541.77 772.85,541.54 774.50,541.34 C776.15,541.15 779.44,540.73 781.82,540.42 L 786.14 539.86 L 784.49 537.34 C784.18,536.88 783.93,536.41 783.73,535.98 C784.02,536.48 784.46,537.01 784.98,537.48 C786.09,538.49 787.00,539.85 787.00,540.51 ZM 783.32 534.70 C783.30,534.51 783.32,534.36 783.39,534.28 C783.39,534.40 783.38,534.50 783.35,534.57 C783.34,534.61 783.33,534.66 783.32,534.70 Z" fill="rgb(181,211,178)"/>
<path d="M 0.00 512.00 L 0.00 0.00 L 512.00 0.00 L 1024.00 0.00 L 1024.00 512.00 L 1024.00 1024.00 L 512.00 1024.00 L 0.00 1024.00 L 0.00 512.00 ZM 217.83 603.71 C218.55,602.83 218.87,590.29 218.81,564.96 C218.75,544.36 218.78,524.47 218.86,520.77 L 219.00 514.04 L 240.75 513.77 L 262.50 513.50 L 262.78 501.25 L 263.06 489.00 L 223.28 488.75 C201.40,488.61 175.40,488.57 165.50,488.67 L 147.50 488.83 L 147.50 501.17 L 147.50 513.50 L 169.75 513.77 L 192.00 514.04 L 192.00 559.52 L 192.00 605.00 L 204.38 605.00 C213.28,605.00 217.06,604.64 217.83,603.71 ZM 303.00 586.50 L 303.00 568.00 L 313.76 568.00 L 324.52 568.00 L 343.01 586.51 L 361.50 605.03 L 392.83 604.76 L 424.17 604.50 L 433.89 586.00 C439.23,575.83 449.18,556.81 455.99,543.75 C462.80,530.69 468.65,520.00 469.00,520.00 C469.34,520.00 471.49,523.94 473.77,528.75 C476.05,533.56 478.37,538.17 478.91,539.00 C481.03,542.24 487.91,559.34 487.41,560.14 C487.12,560.62 480.85,561.00 473.47,561.00 L 460.05 561.00 L 458.46 564.08 C455.06,570.65 450.09,583.33 450.59,584.15 C450.88,584.62 462.72,585.00 476.89,585.00 L 502.66 585.00 L 507.58 594.75 L 512.50 604.50 L 542.10 604.76 L 571.70 605.03 L 587.10 585.90 C595.57,575.37 603.00,566.14 603.61,565.38 C605.79,562.67 607.83,564.14 616.61,574.74 C621.50,580.65 627.53,587.81 630.00,590.66 C632.47,593.51 636.22,597.90 638.32,600.42 L 642.14 605.00 L 671.88 605.00 L 701.63 605.00 L 714.74 579.25 C721.95,565.09 727.95,553.05 728.07,552.50 C728.19,551.95 729.35,549.82 730.65,547.77 C731.94,545.72 733.00,543.74 733.00,543.38 C733.00,543.02 734.36,540.51 736.02,537.81 C737.69,535.10 738.80,532.49 738.50,532.00 C737.95,531.11 743.86,522.00 744.99,522.00 C745.82,522.00 750.00,530.71 750.00,532.44 C750.00,533.21 750.42,533.98 750.94,534.17 C752.31,534.65 764.09,560.04 763.44,561.10 C763.13,561.60 756.50,562.01 748.69,562.02 L 734.50 562.03 L 729.37 571.77 C726.55,577.12 723.93,582.51 723.55,583.75 L 722.87 586.00 L 750.34 586.00 L 777.82 586.00 L 782.03 593.75 C788.37,605.40 786.80,604.60 803.97,604.89 C812.21,605.03 819.42,604.86 819.98,604.52 C820.58,604.14 818.36,598.91 814.50,591.61 C810.92,584.85 808.00,579.03 808.00,578.66 C808.00,578.30 817.19,578.00 828.42,578.00 L 848.83 578.00 L 855.74 570.50 C861.55,564.19 863.16,563.00 865.83,563.00 C868.33,563.00 869.00,562.58 869.00,561.00 C869.00,559.41 869.66,559.00 872.25,559.01 C874.80,559.01 875.86,559.65 877.18,561.97 C880.35,567.53 887.70,566.55 890.09,560.25 C892.41,554.17 883.89,549.58 878.35,553.94 C875.80,555.94 874.63,556.00 835.58,556.00 L 795.43 556.00 L 793.66 553.00 L 791.89 550.00 L 794.69 549.97 C841.76,549.55 846.17,549.12 849.95,544.57 C851.06,543.22 854.82,543.00 876.73,543.00 L 902.21 543.00 L 905.18 545.50 C906.82,546.88 909.24,548.00 910.58,548.00 C913.98,548.00 917.00,544.63 917.00,540.83 C917.00,533.73 909.20,531.43 904.00,537.00 L 901.20 540.00 L 876.07 540.00 L 850.95 540.00 L 845.86 543.50 L 840.78 547.00 L 816.34 547.00 L 791.90 547.00 L 789.45 544.35 C788.10,542.90 787.00,541.17 787.00,540.51 C787.00,539.85 786.09,538.49 784.98,537.48 C783.86,536.47 783.13,535.16 783.35,534.57 C783.57,533.98 782.86,532.01 781.76,530.20 C780.67,528.38 780.01,526.66 780.30,526.37 C780.59,526.07 795.38,525.89 813.17,525.95 L 845.50 526.06 L 851.56 532.07 L 857.63 538.07 L 867.98 537.79 C875.16,537.59 878.46,537.12 878.75,536.25 C879.07,535.30 876.67,535.00 868.91,535.00 L 858.66 535.00 L 852.78 528.94 L 846.91 522.88 L 812.78 523.08 L 778.65 523.28 L 776.82 521.03 C775.82,519.79 775.00,518.38 775.00,517.89 C775.00,517.39 790.32,517.00 810.19,517.00 C843.26,517.00 845.49,517.11 847.44,518.89 C850.80,521.95 853.40,522.26 856.34,519.94 C859.88,517.16 860.12,510.90 856.78,508.56 C853.01,505.92 849.48,506.60 846.19,510.58 L 843.24 514.16 L 810.37 514.17 C792.29,514.17 776.47,514.13 775.20,514.08 C773.60,514.03 772.49,513.02 771.54,510.75 L 770.17 507.50 L 801.25 507.00 C824.87,506.62 832.43,506.20 832.75,505.25 C833.08,504.27 826.21,504.00 800.59,504.00 L 768.02 504.00 L 764.91 498.50 C763.21,495.48 761.40,493.00 760.90,493.00 C760.41,493.00 760.00,492.32 760.00,491.49 C760.00,490.65 758.54,489.07 756.75,487.97 C754.01,486.27 752.13,486.01 744.76,486.29 C736.67,486.59 735.78,486.84 732.97,489.53 C730.41,491.98 716.00,515.64 716.00,517.39 C716.00,517.71 714.28,520.79 712.18,524.23 C710.07,527.68 707.15,532.97 705.69,536.00 C704.22,539.03 699.28,548.03 694.71,556.00 C683.90,574.88 684.48,574.75 670.67,561.09 L 660.50 551.03 L 666.17 551.01 C671.15,551.00 672.21,551.37 674.85,554.00 C678.36,557.51 682.12,557.88 685.00,555.00 C687.45,552.55 687.62,547.34 685.35,544.83 C682.66,541.86 676.86,542.41 673.73,545.92 L 671.12 548.84 L 651.18 548.93 C632.89,549.01 631.05,548.86 628.87,547.09 L 626.50 545.16 L 629.25 542.27 C630.76,540.69 632.00,539.06 632.00,538.65 C632.00,538.24 633.24,536.81 634.75,535.48 C637.41,533.14 638.02,533.06 653.51,533.03 L 669.53 533.00 L 682.44 520.06 C693.68,508.80 695.69,507.19 697.94,507.64 C702.07,508.46 706.00,504.76 706.00,500.05 C706.00,495.47 704.30,493.84 699.40,493.70 C694.51,493.56 691.57,496.97 692.36,501.86 C692.89,505.11 692.37,505.83 680.79,517.63 L 668.66 530.00 L 654.83 530.00 C647.22,530.00 641.01,529.66 641.01,529.25 C641.02,528.84 644.42,524.45 648.58,519.50 C652.73,514.55 657.77,508.48 659.78,506.00 C661.78,503.52 666.51,498.01 670.29,493.75 L 677.16 486.00 L 658.00 486.00 L 638.85 486.00 L 636.17 488.77 C634.70,490.29 627.93,498.41 621.13,506.81 C614.32,515.21 608.25,521.92 607.63,521.71 C607.01,521.50 604.10,518.45 601.16,514.92 C598.22,511.39 592.48,504.54 588.41,499.70 C584.33,494.86 581.00,490.40 581.00,489.78 C581.00,489.16 581.74,487.83 582.65,486.83 C584.09,485.24 585.98,485.00 597.12,485.00 C609.93,485.00 609.93,485.00 613.35,482.00 L 616.76 479.00 L 650.14 479.00 L 683.53 479.00 L 698.00 464.50 L 712.47 450.00 L 732.84 450.00 C753.11,450.00 753.23,450.01 756.18,452.50 C759.87,455.60 760.49,455.60 763.55,452.55 C766.21,449.88 766.57,447.94 764.96,444.93 C763.38,441.97 757.01,442.30 754.00,445.51 L 751.64 448.01 L 731.13 447.95 L 710.63 447.90 L 696.55 461.95 L 682.47 476.00 L 648.42 476.00 L 614.37 476.00 L 611.50 479.00 L 608.63 482.00 L 595.43 482.00 C582.45,482.00 582.20,482.04 580.59,484.50 L 578.95 487.00 L 557.89 487.00 L 536.83 487.00 L 538.67 489.39 C540.67,492.01 567.00,523.63 578.05,536.70 L 584.98 544.90 L 577.74 553.80 C561.96,573.20 553.92,582.78 548.33,588.89 L 542.47 595.27 L 525.03 563.39 C515.43,545.85 504.86,526.45 501.54,520.27 C498.22,514.10 494.94,509.03 494.25,509.02 C493.56,509.01 493.00,508.16 493.00,507.13 C493.00,506.11 492.10,504.13 491.00,502.73 C489.90,501.33 489.00,499.26 489.00,498.13 C489.00,492.50 478.57,485.99 469.57,486.01 C459.19,486.02 454.00,489.57 447.91,500.81 C445.61,505.04 438.64,517.72 432.42,529.00 C426.19,540.28 415.57,559.67 408.80,572.11 C402.04,584.54 395.76,595.79 394.86,597.11 L 393.21 599.50 L 378.07 584.51 C363.92,570.50 363.08,569.45 365.21,568.61 C381.14,562.29 386.15,558.29 390.76,548.21 C393.79,541.60 394.91,527.67 393.10,519.00 C390.38,505.90 382.51,495.36 371.73,490.38 L 365.50 487.50 L 319.25 487.18 L 273.00 486.86 L 273.01 492.18 C273.01,495.11 273.30,501.19 273.65,505.71 L 274.29 513.91 L 313.89 513.99 C335.68,514.03 355.30,514.48 357.50,514.98 C369.20,517.65 371.64,535.93 361.00,541.25 C357.84,542.83 353.54,543.00 316.75,543.00 L 276.00 543.00 L 276.00 574.00 L 276.00 605.00 L 289.50 605.00 L 303.00 605.00 L 303.00 586.50 ZM 853.50 550.00 C853.87,549.40 860.61,549.00 870.37,549.00 C883.11,549.00 887.04,548.68 888.56,547.53 C890.29,546.22 888.51,546.06 872.21,546.03 C857.06,546.01 853.51,546.28 851.47,547.61 C848.98,549.25 848.99,551.00 851.50,551.00 C852.26,551.00 853.16,550.55 853.50,550.00 ZM 842.39 534.75 C844.79,530.92 837.97,526.92 835.04,530.45 C833.95,531.76 830.41,532.00 811.79,532.00 C794.67,532.00 789.92,532.28 790.25,533.25 C790.56,534.19 796.13,534.57 812.55,534.77 C825.76,534.93 834.85,535.45 835.46,536.06 C836.96,537.56 841.13,536.77 842.39,534.75 ZM 549.10 472.85 C553.34,471.42 562.71,464.74 561.19,464.23 C560.57,464.02 556.58,465.06 552.31,466.53 C546.74,468.46 543.25,469.09 539.92,468.77 C530.37,467.85 519.54,460.07 515.62,451.30 C513.83,447.29 513.44,447.03 507.12,445.61 C476.99,438.80 425.05,430.29 398.50,427.81 C380.29,426.11 327.94,426.12 314.00,427.82 C286.74,431.16 258.74,437.29 232.86,445.60 C224.96,448.14 218.31,450.39 218.08,450.61 C216.62,451.98 219.73,451.61 227.51,449.47 C247.97,443.84 281.61,437.75 308.50,434.81 C324.04,433.11 374.15,433.10 392.50,434.79 C423.23,437.62 448.47,441.35 486.07,448.61 L 509.63 453.16 L 511.49 456.61 C516.31,465.56 530.19,474.00 540.10,474.00 C543.18,474.00 547.23,473.48 549.10,472.85 ZM 673.06 472.00 C673.55,472.00 674.66,470.92 675.53,469.59 C676.94,467.44 676.95,466.82 675.60,463.59 C674.35,460.58 673.61,460.00 671.05,460.00 C668.10,460.00 664.00,462.91 664.00,465.00 C664.00,465.55 661.40,466.00 658.19,466.00 C653.03,466.00 652.05,465.66 649.50,463.00 L 646.63 460.00 L 631.89 460.00 C623.78,460.00 614.81,459.46 611.95,458.80 C607.06,457.67 606.64,457.73 604.98,459.77 L 603.22 461.95 L 598.95 459.69 C593.62,456.87 592.13,454.76 593.93,452.58 C595.06,451.22 598.52,451.00 618.76,451.00 L 642.28 451.00 L 650.23 442.50 L 658.18 434.00 L 680.63 434.00 C702.10,434.00 703.21,434.09 706.02,436.17 C708.51,438.01 709.34,438.17 711.49,437.19 C715.33,435.44 716.68,431.69 714.62,428.54 C712.38,425.12 707.77,425.10 704.81,428.50 L 702.64 431.00 L 679.89 431.00 L 657.13 431.00 L 649.35 439.50 L 641.58 448.00 L 617.87 448.00 L 594.17 448.00 L 592.31 450.55 L 590.45 453.10 L 586.47 451.29 C584.29,450.29 580.52,448.01 578.10,446.23 C572.41,442.05 570.36,442.06 569.48,446.25 C569.11,448.04 567.93,451.02 566.86,452.88 C565.79,454.73 565.05,456.36 565.21,456.50 C565.37,456.63 572.03,459.81 580.00,463.55 C591.59,468.98 595.50,470.37 599.50,470.43 C604.23,470.50 604.52,470.35 604.82,467.75 C605.03,465.88 605.71,465.00 606.94,465.00 C607.94,465.00 609.32,464.33 610.00,463.50 C611.02,462.28 614.32,462.00 627.93,462.00 L 644.61 462.00 L 648.00 465.50 C651.18,468.78 651.79,469.00 657.79,469.00 C662.71,469.00 664.78,469.47 666.77,471.04 C668.20,472.16 669.99,472.83 670.76,472.54 C671.53,472.24 672.57,472.00 673.06,472.00 ZM 186.50 451.52 C224.03,435.49 283.53,421.65 328.50,418.49 C333.45,418.14 339.75,417.44 342.50,416.92 C349.73,415.57 395.91,417.47 417.50,420.00 C439.67,422.61 478.39,430.04 506.00,437.00 C510.12,438.04 514.84,439.06 516.48,439.28 C519.06,439.61 519.65,440.31 520.97,444.58 C524.01,454.44 535.33,461.93 544.87,460.41 C557.42,458.40 565.49,445.50 562.01,433.00 C560.79,428.60 555.79,422.47 551.66,420.30 C544.68,416.64 532.59,418.50 526.35,424.19 C524.22,426.14 524.15,426.14 514.35,424.01 C499.83,420.84 471.99,416.18 451.41,413.47 C403.91,407.20 366.22,406.64 322.00,411.56 C271.31,417.19 218.78,431.54 182.91,449.54 C169.46,456.29 156.00,463.99 156.00,464.93 C156.00,465.37 160.39,463.59 165.75,460.98 C171.11,458.36 180.45,454.11 186.50,451.52 ZM 662.73 584.79 C649.96,571.00 632.97,551.70 633.30,551.37 C633.44,551.22 638.61,550.99 644.78,550.86 L 655.99 550.61 L 667.24 561.80 C676.11,570.62 679.09,573.00 681.25,573.00 C682.76,573.00 684.00,573.41 684.00,573.92 C684.00,574.62 673.70,593.29 672.49,594.79 C672.36,594.95 667.97,590.45 662.73,584.79 ZM 804.67 572.75 C803.91,571.51 801.87,567.91 800.14,564.75 L 796.98 559.00 L 829.67 559.00 L 862.35 559.00 L 859.95 561.75 C858.63,563.26 855.30,566.86 852.56,569.75 L 847.57 575.00 L 826.81 575.00 C806.35,575.00 806.03,574.97 804.67,572.75 Z" fill="rgb(253,254,253)"/>
</g>
</svg>